<?xml version="1.0" standalone="no"?>
<!DOCTYPE svg PUBLIC "-//W3C//DTD SVG 20010904//EN"
 "http://www.w3.org/TR/2001/REC-SVG-20010904/DTD/svg10.dtd">
<svg version="1.0" xmlns="http://www.w3.org/2000/svg"
 width="619.000000pt" height="619.000000pt" viewBox="0 0 619.000000 619.000000"
 preserveAspectRatio="xMidYMid meet">
<metadata>
Created by potrace 1.11, written by Peter Selinger 2001-2013
</metadata>
<g transform="translate(0.000000,619.000000) scale(0.100000,-0.100000)"
fill="#000000" stroke="none">
<path d="M2896 5963 c-4 -4 -23 -8 -44 -9 -35 -2 -119 -10 -189 -19 -18 -2
-40 -6 -50 -9 -10 -3 -36 -7 -58 -10 -22 -2 -73 -12 -112 -21 -40 -9 -78 -13
-84 -9 -8 5 -9 3 -4 -6 6 -10 1 -12 -18 -8 -15 3 -24 1 -21 -3 3 -5 -2 -9 -10
-9 -22 0 -26 -1 -63 -17 -18 -7 -36 -12 -40 -11 -8 1 -22 -3 -91 -33 -23 -10
-40 -13 -36 -8 4 6 -4 4 -17 -4 -13 -9 -44 -23 -69 -32 -25 -10 -73 -30 -108
-47 -34 -16 -68 -26 -75 -22 -6 4 -9 4 -5 -1 7 -7 -135 -95 -154 -95 -5 0 -14
-5 -21 -10 -20 -17 -137 -90 -137 -85 0 2 -15 -9 -32 -26 -18 -16 -39 -27 -46
-24 -7 3 -10 0 -7 -5 3 -6 -2 -13 -12 -17 -10 -4 -23 -13 -29 -21 -7 -9 -16
-12 -24 -7 -8 5 -11 4 -6 -3 8 -13 -48 -55 -59 -44 -5 4 -5 2 -2 -4 4 -7 -10
-24 -31 -40 -20 -15 -44 -36 -53 -46 -9 -10 -19 -18 -21 -18 -3 0 -43 -37 -88
-82 -46 -46 -87 -82 -91 -80 -5 1 -8 -2 -7 -7 3 -7 -69 -96 -114 -142 -9 -10
-13 -21 -10 -25 4 -4 -1 -4 -10 -1 -11 4 -15 2 -12 -6 2 -7 -7 -24 -21 -39
-14 -15 -25 -31 -25 -37 0 -5 -3 -11 -7 -13 -19 -8 -193 -277 -193 -297 0 -6
-3 -11 -7 -11 -5 0 -21 -29 -37 -65 -16 -36 -32 -65 -36 -65 -4 0 -7 -6 -7
-12 0 -7 -9 -33 -21 -58 -32 -70 -92 -223 -92 -236 0 -6 -6 -17 -14 -24 -8 -6
-13 -17 -10 -25 3 -7 0 -16 -5 -20 -6 -3 -9 -11 -5 -16 3 -5 0 -17 -8 -26 -7
-9 -12 -19 -11 -22 6 -13 -10 -71 -19 -71 -5 0 -7 -4 -3 -9 3 -5 0 -31 -6 -58
-10 -44 -33 -162 -44 -223 -5 -34 -18 -159 -19 -193 -1 -18 -5 -26 -14 -22
-10 3 -9 -1 2 -16 9 -13 12 -30 8 -43 -4 -11 -7 -49 -7 -83 0 -36 -4 -63 -10
-63 -6 0 -6 -3 0 -8 6 -4 11 -44 12 -89 0 -46 3 -90 7 -98 3 -8 0 -15 -7 -15
-7 0 -6 -4 3 -10 13 -8 13 -13 2 -31 -8 -11 -9 -18 -3 -14 11 6 13 -10 15
-109 1 -24 5 -42 9 -39 5 3 7 -10 6 -29 -2 -18 0 -38 3 -43 3 -6 14 -50 23
-100 10 -49 22 -98 27 -107 6 -13 5 -18 -4 -18 -9 0 -10 -3 -2 -8 13 -8 31
-56 38 -102 1 -9 5 -20 8 -25 7 -13 52 -147 54 -160 0 -5 13 -36 28 -69 15
-32 28 -63 29 -70 1 -6 6 -14 10 -17 5 -4 10 -18 10 -32 1 -14 5 -23 8 -21 8
4 52 -84 52 -103 0 -7 4 -13 8 -13 12 0 37 -53 32 -68 -3 -7 0 -11 6 -10 7 2
25 -22 42 -52 17 -30 35 -56 40 -58 5 -2 9 -9 9 -14 0 -6 18 -35 40 -64 22
-29 40 -58 40 -64 0 -5 5 -10 11 -10 6 0 8 -9 4 -22 -4 -15 -3 -19 3 -10 7 10
11 10 22 -3 7 -8 9 -15 4 -15 -5 0 -1 -5 9 -11 9 -6 14 -15 11 -21 -4 -7 -2
-8 4 -4 14 8 36 -30 26 -46 -4 -7 -3 -8 5 -4 15 10 53 -32 44 -48 -3 -6 -3 -8
1 -4 11 9 46 -23 39 -35 -3 -6 -1 -7 4 -4 14 9 40 -32 38 -60 -1 -12 2 -20 7
-17 5 4 7 12 4 20 -3 8 -1 14 5 14 6 0 13 -9 16 -20 3 -10 14 -22 25 -26 11
-3 17 -12 14 -19 -3 -9 0 -12 10 -8 14 5 20 -12 7 -20 -5 -2 -3 -2 4 -1 7 2
28 -11 46 -29 19 -18 53 -49 74 -69 22 -21 46 -38 53 -38 9 0 7 -7 -6 -21 -19
-22 -19 -22 2 -9 21 13 32 8 86 -42 10 -10 18 -15 18 -11 0 3 9 -2 20 -12 11
-10 17 -21 15 -25 -3 -4 1 -7 8 -6 7 0 24 -7 38 -17 13 -10 52 -36 87 -57 42
-27 61 -44 56 -53 -6 -9 -4 -9 8 1 17 14 34 0 23 -18 -3 -5 -1 -10 4 -10 6 0
11 4 11 10 0 10 62 -22 93 -48 9 -8 17 -12 17 -8 0 4 6 1 14 -6 8 -7 11 -17 8
-23 -3 -5 3 -3 13 5 15 12 17 12 10 1 -6 -11 -4 -13 8 -8 10 4 22 -1 31 -14
10 -15 15 -17 19 -7 4 11 6 11 6 0 1 -7 6 -10 13 -6 7 5 8 3 4 -5 -5 -8 -3
-11 5 -10 22 4 69 -19 69 -33 0 -9 3 -9 11 2 9 12 10 11 6 -6 -2 -12 1 -21 8
-21 8 0 11 7 7 16 -5 13 -3 14 9 4 8 -6 28 -14 44 -17 15 -3 31 -10 35 -16 4
-7 10 -11 14 -11 3 1 7 1 9 0 1 0 13 -2 27 -5 14 -2 30 -11 37 -20 7 -10 13
-11 18 -5 4 7 14 5 31 -5 13 -9 24 -13 24 -10 0 4 9 2 20 -4 11 -6 17 -16 14
-22 -4 -6 -3 -8 3 -5 6 4 14 0 17 -8 5 -14 9 -14 36 0 27 14 31 14 36 0 3 -8
13 -15 21 -15 8 0 11 -4 8 -10 -3 -5 -1 -10 4 -10 17 0 13 18 -6 30 -17 11
-17 11 0 6 10 -3 23 -6 28 -6 6 0 7 -5 3 -11 -5 -8 -1 -8 13 0 11 6 23 7 27 4
4 -4 12 -8 19 -9 7 -2 26 -6 42 -9 51 -11 79 -16 97 -16 10 0 20 -4 23 -9 3
-5 13 -6 21 -3 9 3 20 0 25 -8 5 -8 9 -9 9 -3 0 6 11 12 25 12 14 0 25 -5 25
-10 0 -6 -9 -8 -19 -5 -13 3 -18 0 -15 -7 6 -16 32 -16 38 -1 3 8 20 11 48 8
54 -5 71 -10 64 -22 -3 -5 2 -15 12 -22 16 -13 16 -13 2 5 -14 18 -13 19 5 12
11 -4 27 -9 35 -11 8 -1 14 -8 13 -14 -2 -6 2 -11 7 -11 14 0 13 13 -2 28 -16
16 -3 15 23 0 17 -11 23 -10 26 0 3 7 13 17 23 22 13 7 20 6 24 -6 5 -12 2
-15 -9 -10 -9 3 -14 2 -10 -3 3 -5 0 -11 -7 -13 -6 -2 -12 -12 -14 -21 -1 -9
2 -15 7 -11 5 3 7 9 4 14 -3 5 5 12 17 16 24 7 35 4 31 -8 -5 -14 15 -8 20 6
11 27 62 43 139 42 42 -1 75 1 73 4 -5 9 108 5 122 -3 6 -4 18 0 27 8 13 13
15 13 21 -6 6 -17 9 -19 16 -8 12 20 11 37 -2 19 -9 -13 -10 -13 -6 0 2 9 15
15 30 14 15 0 27 5 27 10 0 6 5 4 10 -4 7 -11 12 -12 18 -4 4 6 19 10 35 8 15
-1 25 1 22 6 -3 4 5 6 17 2 16 -4 19 -2 13 8 -5 9 -4 11 4 6 6 -4 9 -11 6 -16
-3 -5 -1 -11 5 -15 6 -4 7 -11 4 -17 -4 -7 -2 -8 5 -4 9 6 9 11 0 22 -7 9 -8
14 -1 14 6 0 14 -5 17 -10 4 -6 11 -8 16 -4 5 3 7 10 3 15 -3 5 -9 7 -14 4 -5
-3 -12 0 -16 6 -5 9 1 10 20 5 20 -5 26 -4 20 5 -4 8 -3 9 4 5 6 -4 20 -3 29
3 10 5 29 11 43 12 14 2 29 9 33 14 5 6 7 4 4 -5 -2 -8 -10 -14 -16 -12 -7 1
-10 -2 -6 -8 3 -6 11 -7 17 -4 7 5 9 1 5 -9 -3 -10 -2 -17 3 -17 9 0 14 20 11
46 -2 13 27 27 39 19 5 -3 11 -1 15 5 4 6 11 8 16 5 5 -4 9 -2 9 3 0 5 6 9 13
9 6 0 20 4 31 8 14 6 17 5 14 -6 -3 -8 -11 -13 -17 -11 -16 3 -51 -16 -51 -28
0 -6 5 -10 11 -10 5 0 7 5 3 11 -4 7 -1 10 7 7 8 -3 13 -14 11 -24 -2 -15 -1
-16 7 -4 7 9 6 19 -1 27 -13 16 -4 17 22 3 16 -8 18 -7 14 4 -3 8 0 17 5 21 6
3 8 12 5 18 -4 7 -4 9 1 5 4 -4 15 -2 23 5 13 9 14 9 8 -1 -4 -7 -2 -12 4 -12
6 0 9 -4 5 -9 -3 -6 5 -15 17 -21 22 -11 22 -10 4 4 -11 9 -18 16 -15 17 2 0
14 2 27 5 14 2 21 0 17 -6 -3 -5 -1 -10 4 -10 13 0 14 11 3 25 -8 13 -22 13
-41 1 -9 -6 -12 -5 -9 5 3 8 11 14 19 14 8 0 20 6 27 13 8 7 17 10 22 7 5 -3
11 1 13 7 4 10 6 10 6 1 1 -7 5 -13 11 -13 5 0 9 5 7 12 -1 7 3 12 8 13 6 0
17 5 25 10 21 13 52 14 74 3 12 -7 16 -7 12 0 -3 5 1 13 10 16 12 4 15 2 11
-9 -9 -21 9 -27 24 -8 10 12 10 14 2 9 -7 -4 -13 -3 -13 1 0 13 33 30 53 27 9
-1 15 2 12 6 -3 5 8 7 25 5 26 -3 30 -1 25 15 -5 16 -2 18 22 14 27 -5 27 -4
8 10 -22 16 -45 5 -45 -20 0 -8 -5 -14 -11 -14 -6 0 -8 7 -5 17 6 16 6 16 -12
0 -10 -9 -22 -14 -27 -10 -4 5 -5 3 -1 -4 4 -8 -2 -10 -21 -7 -18 3 -23 1 -15
-4 11 -8 11 -10 -1 -15 -21 -8 -15 23 6 35 9 5 17 6 17 2 0 -4 8 0 18 9 17 16
20 17 48 17 9 0 12 5 8 12 -4 6 -3 8 3 5 6 -4 13 -1 16 7 3 8 16 12 32 11 21
-3 25 0 20 13 -3 9 -3 13 1 9 4 -4 14 -1 22 6 13 9 14 9 8 0 -4 -7 -3 -13 1
-13 5 0 13 10 18 23 6 12 16 21 23 20 7 -2 12 2 12 8 0 5 11 -2 23 -17 18 -21
26 -24 32 -14 5 8 4 11 -3 6 -6 -3 -13 -2 -16 3 -3 5 1 11 9 15 8 3 19 -3 25
-12 10 -15 10 -15 8 2 -2 10 3 21 11 24 8 2 11 0 8 -5 -3 -5 0 -10 7 -10 8 0
13 7 11 16 -2 17 -33 22 -52 7 -8 -5 -13 -5 -13 0 0 5 -7 0 -15 -10 -13 -17
-15 -17 -15 -3 0 13 30 38 50 41 3 1 4 4 3 8 -2 4 5 4 14 1 11 -4 14 -3 9 5
-5 8 -1 10 10 5 12 -4 14 -8 5 -11 -8 -3 -7 -8 6 -18 10 -7 22 -14 27 -14 6 0
1 7 -10 15 -10 8 -15 15 -10 15 5 0 3 6 -3 14 -8 10 -8 16 3 25 10 9 16 8 26
-4 9 -10 9 -15 1 -15 -6 0 -11 5 -11 11 0 5 -5 7 -11 3 -8 -5 -6 -10 5 -16 25
-14 38 -1 25 25 -12 22 -12 22 9 4 11 -11 18 -25 15 -33 -3 -8 -1 -14 5 -14 6
0 9 8 7 18 -1 9 2 25 6 34 6 10 5 19 -1 23 -6 4 -10 3 -9 -2 1 -4 1 -15 0 -23
-1 -13 -2 -13 -11 0 -13 21 7 42 30 30 9 -5 20 -6 24 -3 3 3 6 -2 6 -13 1 -18
1 -18 11 -1 9 15 13 16 27 5 15 -12 16 -11 4 4 -8 9 -21 14 -30 12 -12 -4 -9
1 7 15 22 20 41 20 41 0 0 -6 -5 -7 -12 -3 -7 4 -8 3 -4 -4 10 -16 14 -15 27
9 8 15 8 19 0 15 -6 -4 -11 -3 -11 2 0 16 13 22 27 11 9 -9 13 -8 13 0 0 6 -4
11 -10 11 -5 0 -10 4 -10 10 0 5 14 8 31 6 33 -4 27 13 -7 19 -11 2 -21 4 -23
4 -2 1 2 8 9 16 8 10 20 13 34 9 19 -6 20 -5 6 12 -8 10 -11 16 -6 12 4 -3 34
20 67 52 32 32 59 54 59 49 0 -4 8 -6 18 -3 14 5 15 4 2 -5 -16 -11 -13 -12
39 -15 28 -1 36 14 16 31 -4 4 -5 2 -1 -4 4 -7 3 -13 -3 -13 -5 0 -17 -3 -26
-6 -12 -5 -10 3 9 31 14 21 27 44 27 51 3 28 4 32 11 40 4 3 6 -3 3 -15 -2
-11 0 -21 6 -21 5 0 9 -6 9 -14 0 -20 17 -29 26 -15 4 8 3 9 -4 5 -7 -4 -13 6
-17 26 -6 40 -2 69 11 66 5 -2 7 -7 6 -13 -9 -26 -10 -45 -2 -50 5 -3 7 4 5
15 -3 17 0 19 20 16 18 -3 22 -1 18 11 -5 12 -3 14 8 8 12 -7 12 -6 1 7 -10
12 -10 17 1 27 8 6 17 8 20 5 3 -3 16 2 29 11 14 11 16 15 6 12 -10 -4 -20 -2
-23 3 -4 6 -1 11 4 11 31 4 73 20 68 26 -3 2 -15 0 -26 -7 -26 -13 -29 5 -4
19 17 9 16 11 -1 30 -17 19 -17 21 -2 27 9 3 13 11 9 17 -3 6 -1 7 6 3 6 -4
14 0 18 11 13 36 35 62 48 57 11 -5 10 -9 -3 -24 -8 -11 -19 -17 -24 -14 -4 3
-8 0 -8 -6 0 -6 11 -8 24 -6 14 2 27 -1 30 -7 2 -7 5 -4 5 6 1 9 -4 17 -10 17
-8 0 -8 4 0 14 9 11 8 18 -4 30 -11 11 -12 16 -4 16 7 0 9 3 6 7 -11 11 14 32
30 26 11 -4 14 -3 9 6 -4 6 -2 18 4 26 7 8 9 15 4 15 -4 0 3 11 16 25 13 14
19 25 14 25 -5 0 -1 5 9 11 9 6 15 14 12 19 -7 11 30 32 40 22 4 -4 5 0 3 8
-3 8 -11 14 -18 12 -10 -2 -10 1 1 15 8 10 20 22 27 26 7 5 10 12 7 18 -3 5 1
6 9 3 9 -3 16 -10 16 -16 0 -5 -5 -6 -12 -2 -7 5 -8 3 -3 -6 6 -9 4 -11 -5 -5
-9 6 -11 4 -5 -5 5 -8 4 -11 -2 -7 -5 3 -10 0 -10 -8 0 -21 9 -18 30 10 10 14
15 30 11 37 -5 7 -2 9 9 5 20 -7 45 30 43 63 -2 27 10 50 26 50 6 0 4 -8 -3
-17 -12 -16 -12 -17 2 -6 9 7 18 10 21 7 3 -2 8 1 11 9 3 8 -3 13 -18 12 -29
0 -55 -23 -48 -41 4 -10 0 -13 -13 -8 -16 5 -17 4 -4 -6 13 -10 12 -11 -3 -6
-11 4 -16 2 -12 -5 4 -6 14 -8 22 -5 9 4 13 1 10 -6 -2 -7 -15 -12 -28 -11
-15 1 -17 0 -6 -3 25 -8 21 -21 -5 -19 -24 2 -26 24 -5 37 7 4 8 8 3 8 -5 0
-3 6 3 13 6 8 7 17 3 21 -4 4 0 6 8 4 8 -2 16 4 16 12 1 8 3 17 4 20 1 3 3 13
5 24 2 10 9 24 15 30 8 8 9 6 4 -8 -5 -14 -4 -17 5 -12 8 5 10 18 7 32 -5 17
-2 24 9 24 8 0 15 -5 15 -11 0 -5 -5 -7 -11 -3 -8 5 -8 1 0 -14 13 -25 31 -38
31 -23 0 6 -4 11 -10 11 -5 0 -10 5 -10 11 0 5 4 8 8 5 4 -2 14 0 22 6 12 8
12 9 -2 4 -29 -9 -18 25 12 37 9 4 4 6 -10 4 -19 -2 -25 3 -26 20 -1 13 3 20
9 16 6 -4 8 0 4 11 -4 11 -3 15 4 10 7 -4 9 0 5 12 -4 14 3 25 24 39 29 20 40
45 19 45 -5 0 -8 -4 -4 -9 3 -6 -4 -15 -15 -21 -20 -11 -21 -10 -9 12 7 13 14
28 15 33 2 6 5 20 8 32 2 12 9 30 14 40 10 18 12 25 12 43 0 6 5 10 11 10 8 0
8 -4 2 -12 -6 -7 -9 -21 -8 -30 2 -10 -1 -18 -6 -18 -5 0 -9 -5 -9 -11 0 -5 6
-7 13 -3 6 4 5 -1 -4 -12 -27 -33 -28 -40 -6 -41 17 -2 18 0 7 7 -8 5 -11 12
-7 16 3 4 15 1 24 -7 16 -13 17 -12 4 3 -11 15 -11 21 0 34 10 12 10 17 0 23
-19 12 -18 16 4 42 11 12 14 19 6 14 -11 -6 -13 -3 -9 13 4 12 1 22 -4 22 -6
0 -4 7 3 17 8 9 13 18 12 20 -7 9 -2 23 7 18 6 -3 10 -1 10 4 0 6 5 11 11 11
6 0 9 -7 5 -15 -3 -8 -1 -15 5 -15 6 0 9 8 7 18 -2 9 -11 17 -20 17 -9 0 -20
4 -25 9 -5 5 -2 6 6 1 10 -6 12 -3 7 13 -5 15 -1 21 16 25 12 4 27 2 33 -3 8
-7 12 -5 12 5 0 8 -2 13 -5 10 -3 -2 -14 0 -25 6 -10 6 -17 7 -14 2 4 -5 0
-10 -8 -10 -10 0 -12 4 -5 12 5 7 6 16 2 20 -4 5 -1 5 6 1 9 -6 11 -1 8 18 -3
15 -1 24 5 21 5 -4 12 1 15 9 3 9 10 13 15 10 5 -3 7 -9 4 -14 -3 -4 2 -10 10
-13 12 -5 12 -2 3 18 -6 13 -17 26 -25 29 -8 3 -11 2 -8 -3 3 -5 1 -12 -5 -16
-11 -7 -14 18 -3 29 4 3 7 21 7 38 1 19 7 33 16 35 13 4 13 3 0 -6 -18 -13 -1
-14 19 -2 11 7 9 10 -8 16 -23 7 -27 20 -9 31 7 5 8 3 3 -5 -6 -10 -3 -11 14
-2 11 7 21 17 21 24 0 8 -4 7 -11 -3 -8 -11 -12 -12 -16 -2 -2 6 -10 9 -16 5
-9 -5 -9 -3 -1 8 6 8 10 26 7 41 -2 14 1 29 6 33 6 3 8 -4 6 -16 -2 -12 -2
-19 2 -16 3 4 15 2 27 -4 21 -10 21 -10 1 6 -11 9 -19 23 -17 31 2 8 -1 14 -7
14 -12 0 -9 91 4 107 7 8 15 7 28 -5 14 -13 17 -13 12 -1 -3 8 -15 20 -26 27
-12 8 -18 9 -14 3 3 -6 1 -11 -5 -11 -8 0 -9 7 -5 18 4 9 8 60 9 112 0 52 5
101 10 109 6 9 5 12 -2 7 -6 -3 -9 1 -8 11 2 10 -1 21 -6 24 -6 4 -6 14 1 28
10 17 16 19 31 11 16 -8 18 -8 14 4 -3 9 -9 15 -12 14 -32 -4 -37 4 -39 60 -1
31 -4 66 -6 77 -2 11 3 26 12 33 14 12 14 13 -2 8 -11 -3 -16 -2 -12 4 3 6 0
10 -7 10 -10 0 -9 3 2 10 9 6 17 5 23 -3 6 -8 7 -8 4 3 -2 8 -12 13 -22 12
-16 -3 -17 -1 -6 12 9 11 10 16 2 16 -6 0 -11 7 -11 15 0 18 16 20 23 3 4 -10
6 -10 6 0 1 8 -8 16 -19 19 -17 4 -18 8 -8 20 14 17 19 83 7 83 -8 0 -13 -15
-10 -32 0 -5 -4 -8 -9 -8 -9 0 -14 24 -12 60 0 8 -4 22 -9 32 -8 14 -6 18 8
19 14 0 15 2 3 6 -16 6 -30 23 -30 36 0 5 5 5 12 1 6 -4 4 3 -5 16 -13 19 -14
27 -4 39 9 12 9 13 0 7 -13 -7 -17 4 -14 33 2 8 -2 10 -10 5 -8 -5 -11 -2 -6
8 3 9 -2 26 -11 39 -14 21 -14 22 1 16 9 -3 19 -1 23 5 4 6 3 8 -4 4 -14 -9
-42 32 -35 52 4 10 2 13 -5 8 -11 -7 -17 11 -13 42 1 6 -3 12 -9 12 -6 0 -9 4
-5 9 3 5 0 13 -6 17 -8 4 -7 9 2 15 11 7 10 9 -3 9 -21 0 -23 11 -6 28 7 7 8
12 3 12 -5 0 0 7 11 15 18 13 18 14 -4 8 -14 -3 -21 -11 -18 -19 3 -8 1 -14
-3 -14 -14 0 -20 26 -10 39 5 6 6 9 2 6 -10 -8 -42 46 -36 61 3 8 0 14 -7 14
-6 0 -8 5 -5 10 3 6 2 10 -3 10 -5 0 -14 11 -20 24 -8 19 -7 29 6 47 15 24 15
24 -4 7 -20 -17 -21 -17 -37 18 -10 19 -13 33 -8 30 5 -4 13 -1 17 5 4 7 3 9
-4 5 -15 -9 -42 21 -49 55 -3 16 -8 27 -12 25 -4 -3 -18 16 -31 42 -14 26 -28
52 -33 57 -32 41 -67 106 -62 115 3 5 0 7 -8 4 -10 -3 -17 4 -21 20 -3 14 -11
26 -17 26 -6 0 -7 5 -4 10 3 6 -1 10 -10 10 -9 0 -13 5 -10 10 3 6 1 10 -6 10
-7 0 -10 2 -7 5 3 3 -8 19 -24 35 -16 17 -26 34 -23 40 4 6 2 9 -4 8 -15 -4
-72 65 -66 80 3 8 0 10 -6 6 -14 -9 -71 54 -62 69 3 5 2 7 -4 4 -5 -4 -19 4
-30 16 -10 12 -40 41 -66 63 -25 23 -43 44 -40 48 4 3 -1 6 -11 6 -13 0 -16 5
-11 23 5 17 4 19 -4 7 -10 -13 -16 -10 -41 18 -16 17 -33 33 -37 35 -5 1 -7 6
-5 10 1 5 -2 6 -7 3 -5 -4 -13 -1 -18 6 -4 7 -20 19 -35 27 -15 8 -25 18 -22
23 3 4 0 8 -7 8 -6 0 -20 9 -30 21 -9 11 -21 21 -26 21 -11 1 -97 60 -101 70
-2 4 -10 8 -17 8 -8 0 -18 7 -23 16 -5 9 -12 16 -15 16 -24 0 -46 13 -50 30
-3 11 -10 17 -17 13 -6 -4 -23 1 -38 11 -15 10 -29 19 -32 19 -3 1 -34 16 -70
35 -36 19 -81 42 -101 51 -20 9 -40 22 -43 28 -4 6 -11 9 -16 6 -5 -3 -24 2
-42 12 -33 17 -39 19 -59 22 -5 0 -8 4 -6 9 3 4 -9 8 -26 9 -17 1 -34 8 -39
15 -4 7 -8 9 -8 4 0 -5 -6 -3 -13 3 -8 6 -17 8 -20 4 -4 -3 -7 -2 -7 3 0 5
-12 11 -26 12 -15 1 -32 6 -38 11 -6 5 -13 9 -16 8 -9 -2 -105 26 -115 33 -5
4 -18 6 -27 5 -10 -2 -18 1 -18 6 0 5 -3 8 -7 8 -5 -1 -10 -1 -13 0 -3 1 -25
4 -50 7 -25 2 -51 5 -57 6 -7 1 -13 4 -13 8 0 3 -8 6 -17 6 -10 0 -40 4 -68 8
-27 4 -68 10 -90 12 -22 3 -45 10 -51 15 -7 6 -15 6 -18 1 -3 -5 -22 -7 -43
-5 -21 3 -51 5 -68 6 -16 1 -33 7 -37 12 -5 6 -8 5 -8 -3 0 -7 -5 -10 -10 -7
-13 8 -240 8 -248 1 -3 -3 -10 -1 -17 4 -7 5 -15 7 -19 3z m2935 -2330 c-8
-15 -10 -15 -11 -2 0 17 10 32 18 25 2 -3 -1 -13 -7 -23z m-171 -1603 c0 -5
-7 -7 -15 -4 -8 4 -15 8 -15 10 0 2 7 4 15 4 8 0 15 -4 15 -10z m-387 -643
c16 9 -24 -40 -41 -50 -10 -7 -10 -12 -1 -23 6 -8 8 -14 4 -14 -4 0 -14 8 -22
18 -8 9 -11 11 -8 4 4 -7 0 -21 -8 -30 -15 -17 -17 -21 -17 -43 0 -5 -4 -8 -8
-5 -25 15 37 129 64 119 8 -3 14 -2 13 3 -1 5 0 16 1 24 1 11 3 11 7 2 2 -6
10 -9 16 -5z m-186 -192 c0 -8 -4 -15 -9 -15 -10 0 -11 14 -1 23 9 10 10 9 10
-8z m-15 -29 c5 4 4 -4 -3 -17 -7 -15 -14 -19 -17 -11 -2 6 -8 9 -14 6 -5 -3
-4 3 4 15 7 12 14 17 16 11 2 -6 8 -7 14 -4z m-233 -217 c-6 -12 -13 -18 -16
-15 -3 3 -19 -8 -36 -24 -17 -16 -35 -26 -40 -23 -11 7 22 43 37 40 6 -1 10 4
8 12 -2 9 4 12 18 8 15 -4 20 -2 16 8 -6 15 3 27 15 19 5 -3 4 -14 -2 -25z
m-589 -358 c0 -14 -29 -21 -36 -9 -4 7 -3 8 4 4 7 -4 12 -2 12 3 0 6 5 11 10
11 6 0 10 -4 10 -9z m-1947 -154 c4 3 7 2 7 -4 0 -6 -7 -13 -15 -17 -8 -3 -15
-4 -15 -2 0 3 -3 13 -7 23 -6 15 -4 16 9 6 8 -7 18 -10 21 -6z m1107 -83 c0
-8 -19 -13 -24 -6 -3 5 1 9 9 9 8 0 15 -2 15 -3z m-530 -18 c0 5 5 2 10 -6 6
-9 10 -10 10 -3 0 7 14 11 35 10 19 -1 35 -5 35 -8 0 -14 -14 -17 -32 -8 -14
7 -23 8 -30 1 -12 -12 -58 5 -58 21 0 5 7 4 15 -3 8 -7 15 -9 15 -4z m190 -7
c0 -4 -6 -12 -14 -18 -12 -10 -17 -9 -24 6 -8 15 -6 18 14 18 13 0 24 -3 24
-6z"/>
<path d="M5216 1343 c-6 -14 -5 -15 5 -6 7 7 10 15 7 18 -3 3 -9 -2 -12 -12z"/>
<path d="M5179 1293 c-13 -16 -12 -17 4 -4 16 13 21 21 13 21 -2 0 -10 -8 -17
-17z"/>
<path d="M4759 903 c-13 -16 -12 -17 4 -4 16 13 21 21 13 21 -2 0 -10 -8 -17
-17z"/>
<path d="M4360 5650 c8 -5 20 -10 25 -10 6 0 3 5 -5 10 -8 5 -19 10 -25 10 -5
0 -3 -5 5 -10z"/>
<path d="M4460 5610 c-12 -7 -10 -9 7 -7 12 0 19 5 17 9 -6 10 -6 10 -24 -2z"/>
<path d="M4795 5371 c-3 -5 -2 -12 3 -15 5 -3 9 1 9 9 0 17 -3 19 -12 6z"/>
<path d="M4895 5290 c3 -5 8 -10 11 -10 2 0 4 5 4 10 0 6 -5 10 -11 10 -5 0
-7 -4 -4 -10z"/>
<path d="M4994 5192 c4 -3 14 -7 22 -8 9 -1 13 0 10 4 -4 3 -14 7 -22 8 -9 1
-13 0 -10 -4z"/>
<path d="M5035 5161 c-3 -5 -2 -12 3 -15 5 -3 9 1 9 9 0 17 -3 19 -12 6z"/>
<path d="M5090 5110 c-9 -6 -10 -10 -3 -10 6 0 15 5 18 10 8 12 4 12 -15 0z"/>
<path d="M5169 5073 c-13 -16 -12 -17 4 -4 9 7 17 15 17 17 0 8 -8 3 -21 -13z"/>
<path d="M5146 5028 c3 -5 10 -6 15 -3 13 9 11 12 -6 12 -8 0 -12 -4 -9 -9z"/>
<path d="M5200 4976 c0 -2 7 -7 16 -10 8 -3 12 -2 9 4 -6 10 -25 14 -25 6z"/>
<path d="M5240 4950 c-9 -6 -10 -10 -3 -10 6 0 15 5 18 10 8 12 4 12 -15 0z"/>
<path d="M5274 4903 c16 -20 36 -23 36 -6 0 4 -3 3 -7 0 -3 -4 -16 1 -27 10
-21 18 -21 18 -2 -4z"/>
<path d="M5390 4720 c6 -11 13 -20 16 -20 2 0 0 9 -6 20 -6 11 -13 20 -16 20
-2 0 0 -9 6 -20z"/>
<path d="M5450 4691 c0 -6 4 -13 10 -16 6 -3 7 1 4 9 -7 18 -14 21 -14 7z"/>
<path d="M5426 4666 c3 -8 13 -17 22 -21 13 -5 13 -2 -3 15 -21 24 -26 25 -19
6z"/>
<path d="M5474 4628 c3 -9 0 -19 -7 -22 -7 -2 -2 -4 10 -2 12 1 26 6 30 11 5
4 3 5 -4 1 -6 -3 -17 2 -23 11 -10 16 -11 16 -6 1z"/>
<path d="M5534 4532 c3 -5 0 -12 -6 -15 -7 -2 -10 -7 -7 -11 3 -4 12 0 18 8 9
11 9 16 0 22 -7 4 -9 3 -5 -4z"/>
<path d="M5537 4479 c7 -7 15 -10 18 -7 3 3 -2 9 -12 12 -14 6 -15 5 -6 -5z"/>
<path d="M5572 4440 c-8 -13 -8 -20 -1 -20 5 0 7 -6 3 -12 -4 -7 -3 -10 1 -6
7 7 17 58 12 58 -1 0 -8 -9 -15 -20z"/>
<path d="M5596 4372 c-2 -4 2 -16 10 -27 8 -10 14 -14 14 -8 0 7 -5 15 -10 18
-6 4 -8 11 -5 16 4 5 4 9 1 9 -3 0 -7 -3 -10 -8z"/>
<path d="M5636 4282 c-2 -4 -1 -14 4 -22 7 -11 9 -9 7 8 -1 24 -3 26 -11 14z"/>
<path d="M5673 4273 c4 -3 1 -13 -6 -22 -11 -14 -10 -14 5 -2 16 12 16 31 1
31 -4 0 -3 -3 0 -7z"/>
<path d="M5693 4167 c-3 -6 -1 -7 5 -3 5 3 12 1 14 -6 3 -8 6 -7 10 3 7 17
-19 22 -29 6z"/>
<path d="M5715 4118 c4 -13 12 -27 17 -33 5 -6 5 1 -1 16 -5 15 -7 30 -4 33 4
3 1 6 -6 6 -8 0 -10 -8 -6 -22z"/>
<path d="M5755 4091 c-3 -5 -2 -12 3 -15 5 -3 9 1 9 9 0 17 -3 19 -12 6z"/>
<path d="M5770 3960 c-9 -6 -10 -10 -3 -10 6 0 15 5 18 10 8 12 4 12 -15 0z"/>
<path d="M5795 3940 c-4 -6 -11 -7 -17 -4 -7 4 -8 2 -4 -5 6 -9 11 -9 22 0 14
11 18 19 10 19 -3 0 -8 -5 -11 -10z"/>
<path d="M5797 3906 c-17 -13 -17 -14 0 -20 10 -4 14 -4 10 0 -4 4 -2 13 4 21
14 17 9 16 -14 -1z"/>
<path d="M5814 3812 c4 -3 14 -7 22 -8 9 -1 13 0 10 4 -4 3 -14 7 -22 8 -9 1
-13 0 -10 -4z"/>
<path d="M5876 3797 c3 -10 9 -15 12 -12 3 3 0 11 -7 18 -10 9 -11 8 -5 -6z"/>
<path d="M5810 3749 c0 -5 5 -7 10 -4 6 3 10 8 10 11 0 2 -4 4 -10 4 -5 0 -10
-5 -10 -11z"/>
<path d="M5827 3732 c-10 -10 -17 -23 -17 -28 0 -5 5 -1 11 9 6 9 14 15 18 13
4 -3 8 1 8 9 0 19 -1 19 -20 -3z"/>
<path d="M5853 3627 c-3 -5 0 -14 6 -20 9 -9 10 -7 5 7 -5 13 -4 17 4 12 6 -3
13 -3 16 2 3 5 -2 9 -10 9 -8 0 -17 -4 -21 -10z"/>
<path d="M5874 3572 c3 -5 1 -12 -6 -14 -8 -3 -9 -6 -1 -11 6 -4 13 0 17 8 3
8 0 17 -6 21 -6 4 -8 3 -4 -4z"/>
<path d="M5864 3468 c-12 -14 -13 -18 -3 -10 9 6 18 10 21 7 2 -3 5 2 5 10 0
19 0 19 -23 -7z"/>
<path d="M5896 3437 c3 -10 9 -15 12 -12 3 3 0 11 -7 18 -10 9 -11 8 -5 -6z"/>
<path d="M5866 3403 c-4 -9 -3 -19 1 -22 13 -10 14 -31 1 -31 -7 0 -5 -5 5
-11 10 -6 21 -8 24 -5 4 3 2 6 -4 6 -5 0 -9 18 -8 40 2 41 -8 53 -19 23z"/>
<path d="M5935 3290 c3 -5 8 -10 11 -10 2 0 4 5 4 10 0 6 -5 10 -11 10 -5 0
-7 -4 -4 -10z"/>
<path d="M5865 3281 c-3 -5 -1 -12 5 -16 6 -4 8 -11 5 -16 -4 -5 -1 -9 4 -9
14 0 14 17 0 26 -8 4 -7 9 2 15 10 6 10 9 2 9 -6 0 -14 -4 -18 -9z"/>
<path d="M5900 3241 c0 -6 4 -13 10 -16 6 -3 7 1 4 9 -7 18 -14 21 -14 7z"/>
<path d="M5894 3213 c4 -8 1 -13 -8 -13 -11 0 -14 -8 -11 -31 2 -17 6 -34 9
-37 3 -3 4 9 2 27 -2 23 0 31 9 27 14 -5 14 19 0 31 -4 4 -5 2 -1 -4z"/>
<path d="M5904 3147 c0 -13 6 -24 13 -24 9 0 9 6 1 21 -15 30 -16 30 -14 3z"/>
<path d="M5880 3110 c8 -5 20 -10 25 -10 6 0 3 5 -5 10 -8 5 -19 10 -25 10 -5
0 -3 -5 5 -10z"/>
<path d="M5870 3093 c0 -9 40 -36 45 -31 2 2 -8 11 -21 21 -13 10 -24 14 -24
10z"/>
<path d="M5874 3035 c0 -26 11 -34 19 -12 5 14 -2 37 -12 37 -4 0 -7 -11 -7
-25z"/>
<path d="M5919 3043 c-12 -16 -12 -17 2 -6 9 7 20 9 24 5 5 -4 5 -1 1 6 -9 16
-11 15 -27 -5z"/>
<path d="M5935 3019 c-4 -6 -5 -12 -2 -15 2 -3 7 2 10 11 7 17 1 20 -8 4z"/>
<path d="M5890 2996 c0 -2 7 -7 16 -10 8 -3 12 -2 9 4 -6 10 -25 14 -25 6z"/>
<path d="M5867 2946 c-4 -10 -1 -13 8 -9 8 3 12 9 9 14 -7 12 -11 11 -17 -5z"/>
<path d="M5895 2929 c-4 -6 -5 -12 -2 -15 2 -3 7 2 10 11 7 17 1 20 -8 4z"/>
<path d="M5865 2910 c-3 -5 -1 -10 4 -10 6 0 11 5 11 10 0 6 -2 10 -4 10 -3 0
-8 -4 -11 -10z"/>
<path d="M5895 2890 c3 -5 8 -10 11 -10 2 0 4 5 4 10 0 6 -5 10 -11 10 -5 0
-7 -4 -4 -10z"/>
<path d="M5860 2886 c0 -3 9 -10 20 -16 11 -6 20 -8 20 -6 0 3 -9 10 -20 16
-11 6 -20 8 -20 6z"/>
<path d="M5909 2793 c-13 -16 -12 -17 4 -4 16 13 21 21 13 21 -2 0 -10 -8 -17
-17z"/>
<path d="M5853 2785 c0 -8 4 -12 9 -9 4 3 8 9 8 15 0 5 -4 9 -8 9 -5 0 -9 -7
-9 -15z"/>
<path d="M5870 2730 c-13 -8 -12 -10 3 -10 9 0 17 5 17 10 0 12 -1 12 -20 0z"/>
<path d="M5890 2690 c0 -5 5 -10 11 -10 5 0 7 5 4 10 -3 6 -8 10 -11 10 -2 0
-4 -4 -4 -10z"/>
<path d="M5851 2667 c-1 -10 -5 -16 -9 -13 -5 3 -9 -2 -9 -10 0 -13 2 -13 15
0 8 8 12 20 9 28 -4 9 -6 7 -6 -5z"/>
<path d="M5870 2655 c0 -7 30 -13 34 -7 3 4 -4 9 -15 9 -10 1 -19 0 -19 -2z"/>
<path d="M5860 2629 c0 -5 5 -7 10 -4 6 3 10 8 10 11 0 2 -4 4 -10 4 -5 0 -10
-5 -10 -11z"/>
<path d="M5819 2577 c-7 -18 -2 -44 7 -44 7 0 10 5 7 10 -3 5 0 13 7 17 8 5 7
9 -4 13 -9 4 -16 5 -17 4z"/>
<path d="M5856 2543 c-6 -14 -5 -15 5 -6 7 7 10 15 7 18 -3 3 -9 -2 -12 -12z"/>
<path d="M5801 2491 c-9 -6 -10 -11 -2 -15 6 -4 11 -2 11 4 0 6 5 8 12 4 7 -4
8 -3 4 4 -8 14 -7 14 -25 3z"/>
<path d="M5830 2470 c-12 -7 -10 -9 7 -7 12 0 19 5 17 9 -6 10 -6 10 -24 -2z"/>
<path d="M5774 2390 c0 -16 3 -30 8 -30 4 0 8 4 8 9 0 5 6 11 13 14 6 2 4 3
-5 2 -10 -2 -18 1 -18 6 0 5 5 9 11 9 5 0 7 5 4 10 -12 19 -21 10 -21 -20z"/>
<path d="M5804 2356 c-10 -8 -17 -16 -14 -19 3 -2 14 4 24 14 23 22 18 25 -10
5z"/>
<path d="M5770 2310 c0 -5 5 -10 10 -10 6 0 10 5 10 10 0 6 -4 10 -10 10 -5 0
-10 -4 -10 -10z"/>
<path d="M5790 2275 c0 -8 4 -15 10 -15 5 0 7 7 4 15 -4 8 -8 15 -10 15 -2 0
-4 -7 -4 -15z"/>
<path d="M5752 2201 c-11 -7 -11 -9 0 -14 9 -3 15 1 15 9 0 8 -1 14 -1 14 -1
0 -7 -4 -14 -9z"/>
<path d="M5730 2150 c0 -4 7 -7 15 -6 23 3 26 12 5 13 -11 1 -20 -2 -20 -7z"/>
<path d="M5701 2141 c-8 -5 -15 -19 -16 -30 -2 -28 2 -26 20 9 17 33 17 34 -4
21z"/>
<path d="M5714 2071 c0 -16 3 -27 6 -25 7 8 7 54 0 54 -4 0 -7 -13 -6 -29z"/>
<path d="M5666 2072 c-2 -4 4 -8 15 -8 10 0 19 4 19 8 0 4 -6 8 -14 8 -8 0
-17 -4 -20 -8z"/>
<path d="M5625 1960 c-3 -6 -12 -7 -18 -4 -7 4 -9 4 -5 -1 4 -4 2 -15 -5 -23
-11 -13 -9 -14 11 -1 12 8 22 18 22 24 0 5 4 3 10 -5 5 -8 12 -12 15 -9 3 4
-1 12 -9 18 -10 8 -16 9 -21 1z"/>
<path d="M5570 1729 c0 -5 5 -7 10 -4 6 3 10 8 10 11 0 2 -4 4 -10 4 -5 0 -10
-5 -10 -11z"/>
<path d="M5520 1721 c0 -7 -6 -11 -13 -8 -8 3 -19 2 -26 -3 -10 -5 -9 -9 2
-13 18 -7 55 18 44 29 -4 4 -7 2 -7 -5z"/>
<path d="M5536 1703 c-6 -14 -5 -15 5 -6 7 7 10 15 7 18 -3 3 -9 -2 -12 -12z"/>
<path d="M5465 1679 c-5 -8 -4 -10 3 -5 7 4 12 1 12 -9 0 -9 -5 -13 -11 -10
-12 8 -51 -24 -44 -36 3 -4 1 -10 -5 -14 -14 -9 -12 -28 3 -22 6 2 21 0 32 -5
15 -7 14 -5 -4 10 -14 12 -20 22 -13 26 6 3 12 1 14 -4 2 -6 12 5 22 25 14 25
16 39 9 46 -8 8 -13 7 -18 -2z m-3 -36 c-6 -2 -10 -8 -8 -12 3 -4 -1 -8 -9 -8
-11 0 -12 4 -4 14 6 7 17 13 23 12 7 0 6 -2 -2 -6z"/>
<path d="M606 1668 c3 -5 10 -6 15 -3 13 9 11 12 -6 12 -8 0 -12 -4 -9 -9z"/>
<path d="M5500 1676 c0 -2 7 -6 15 -10 8 -3 15 -1 15 4 0 6 -7 10 -15 10 -8 0
-15 -2 -15 -4z"/>
<path d="M656 1603 c-6 -14 -5 -15 5 -6 7 7 10 15 7 18 -3 3 -9 -2 -12 -12z"/>
<path d="M5480 1610 c-8 -5 -12 -12 -9 -15 4 -3 12 1 19 10 14 17 11 19 -10 5z"/>
<path d="M5520 1590 c-9 -6 -10 -10 -3 -10 6 0 15 5 18 10 8 12 4 12 -15 0z"/>
<path d="M5379 1569 c-6 -31 -5 -40 7 -50 14 -11 15 -10 18 13 0 7 12 18 26
25 17 9 20 13 8 13 -9 0 -20 -5 -23 -10 -5 -8 -11 -7 -21 1 -8 6 -14 10 -15 8z
m17 -35 c1 -9 0 -13 -4 -10 -3 4 -7 14 -8 22 -1 9 0 13 4 10 3 -4 7 -14 8 -22z"/>
<path d="M5450 1529 c0 -5 5 -7 10 -4 6 3 10 8 10 11 0 2 -4 4 -10 4 -5 0 -10
-5 -10 -11z"/>
<path d="M5393 1480 c5 -29 13 -33 13 -5 0 14 -4 25 -8 25 -4 0 -7 -9 -5 -20z"/>
<path d="M5420 1496 c0 -2 8 -10 18 -17 15 -13 16 -12 3 4 -13 16 -21 21 -21
13z"/>
<path d="M5294 1432 l-21 -18 31 -18 c17 -10 25 -12 19 -5 -18 18 -16 26 7 32
21 5 28 27 9 27 -5 0 -7 -4 -4 -10 3 -5 -1 -10 -10 -10 -9 0 -13 5 -10 10 9
14 3 12 -21 -8z"/>
<path d="M5353 1413 c4 -3 1 -13 -6 -22 -11 -14 -10 -14 5 -2 16 12 16 31 1
31 -4 0 -3 -3 0 -7z"/>
<path d="M5296 1325 c-9 -26 -7 -32 5 -12 6 10 9 21 6 23 -2 3 -7 -2 -11 -11z"/>
<path d="M873 1305 c0 -8 4 -12 9 -9 5 3 6 10 3 15 -9 13 -12 11 -12 -6z"/>
<path d="M5215 1270 c3 -5 8 -10 11 -10 2 0 4 5 4 10 0 6 -5 10 -11 10 -5 0
-7 -4 -4 -10z"/>
<path d="M5296 1263 c-6 -14 -5 -15 5 -6 7 7 10 15 7 18 -3 3 -9 -2 -12 -12z"/>
<path d="M955 1230 c3 -5 8 -10 11 -10 2 0 4 5 4 10 0 6 -5 10 -11 10 -5 0 -7
-4 -4 -10z"/>
<path d="M5206 1208 c3 -5 10 -6 15 -3 13 9 11 12 -6 12 -8 0 -12 -4 -9 -9z"/>
<path d="M5107 1166 c-3 -8 0 -20 8 -26 12 -10 13 -8 10 10 -6 29 -11 34 -18
16z"/>
<path d="M4988 1090 c-14 -15 -36 -33 -47 -40 -12 -6 -19 -15 -16 -21 4 -5 2
-9 -2 -9 -12 0 -15 -48 -4 -55 5 -3 13 0 17 6 4 8 3 9 -4 5 -15 -9 -15 9 -1
35 5 11 14 17 19 14 6 -4 7 1 3 11 -4 12 -3 15 5 10 7 -4 12 -15 13 -24 0 -12
3 -11 9 6 5 12 7 30 4 40 -5 14 -3 14 10 -2 13 -17 16 -17 16 -4 0 9 5 18 12
20 7 3 8 10 2 20 -8 15 -12 13 -36 -12z m27 0 c-3 -5 -12 -10 -18 -10 -7 0 -6
4 3 10 19 12 23 12 15 0z"/>
<path d="M1090 1090 c0 -5 5 -10 11 -10 5 0 7 5 4 10 -3 6 -8 10 -11 10 -2 0
-4 -4 -4 -10z"/>
<path d="M1159 1023 c-12 -16 -12 -17 2 -6 9 7 20 9 24 5 5 -4 5 -1 1 6 -9 16
-11 15 -27 -5z"/>
<path d="M4866 992 c-2 -4 4 -8 14 -8 10 0 16 4 14 8 -3 4 -9 8 -14 8 -5 0
-11 -4 -14 -8z"/>
<path d="M1296 892 c-3 -5 1 -9 9 -9 8 0 12 4 9 9 -3 4 -7 8 -9 8 -2 0 -6 -4
-9 -8z"/>
<path d="M1360 881 c0 -6 4 -13 10 -16 6 -3 7 1 4 9 -7 18 -14 21 -14 7z"/>
<path d="M4840 870 c-9 -6 -10 -10 -3 -10 6 0 15 5 18 10 8 12 4 12 -15 0z"/>
<path d="M4745 849 c-4 -6 -5 -12 -2 -15 2 -3 7 2 10 11 7 17 1 20 -8 4z"/>
<path d="M1406 833 c-6 -14 -5 -15 5 -6 7 7 10 15 7 18 -3 3 -9 -2 -12 -12z"/>
<path d="M4760 836 c0 -2 8 -10 18 -17 15 -13 16 -12 3 4 -13 16 -21 21 -21
13z"/>
<path d="M1474 786 c1 -8 5 -18 8 -22 4 -3 5 1 4 10 -1 8 -5 18 -8 22 -4 3 -5
-1 -4 -10z"/>
<path d="M4671 797 c2 -1 12 -9 22 -16 15 -12 17 -12 11 3 -3 9 -13 16 -22 16
-8 0 -13 -1 -11 -3z"/>
<path d="M4730 776 c0 -2 7 -7 16 -10 8 -3 12 -2 9 4 -6 10 -25 14 -25 6z"/>
<path d="M1543 754 c9 -11 14 -24 10 -27 -3 -4 -1 -7 5 -7 19 0 14 15 -10 36
-23 19 -23 19 -5 -2z"/>
<path d="M4676 748 c3 -5 10 -6 15 -3 13 9 11 12 -6 12 -8 0 -12 -4 -9 -9z"/>
<path d="M1515 730 c3 -5 8 -10 11 -10 2 0 4 5 4 10 0 6 -5 10 -11 10 -5 0 -7
-4 -4 -10z"/>
<path d="M4509 730 c-1 -5 -2 -16 -3 -22 -2 -21 -19 -28 -36 -15 -12 9 -1 -8
29 -43 2 -3 2 3 -2 12 -3 10 0 19 10 22 11 4 14 2 10 -9 -4 -8 -3 -16 1 -19 4
-3 8 4 9 14 1 11 -2 22 -8 25 -14 10 -11 25 7 25 8 0 12 -4 9 -10 -3 -5 -1
-10 4 -10 13 0 14 11 3 25 -10 14 -32 17 -33 5z"/>
<path d="M1636 692 c-3 -5 1 -9 9 -9 8 0 12 4 9 9 -3 4 -7 8 -9 8 -2 0 -6 -4
-9 -8z"/>
<path d="M1670 669 c0 -5 5 -7 10 -4 6 3 10 8 10 11 0 2 -4 4 -10 4 -5 0 -10
-5 -10 -11z"/>
<path d="M4416 663 c9 -6 22 -9 30 -6 24 9 15 19 -16 18 -26 0 -28 -2 -14 -12z"/>
<path d="M4560 670 c-9 -6 -10 -10 -3 -10 6 0 15 5 18 10 8 12 4 12 -15 0z"/>
<path d="M1690 649 c0 -5 5 -7 10 -4 6 3 10 8 10 11 0 2 -4 4 -10 4 -5 0 -10
-5 -10 -11z"/>
<path d="M1646 628 c3 -5 10 -6 15 -3 13 9 11 12 -6 12 -8 0 -12 -4 -9 -9z"/>
<path d="M1714 632 c4 -3 14 -7 22 -8 9 -1 13 0 10 4 -4 3 -14 7 -22 8 -9 1
-13 0 -10 -4z"/>
<path d="M1810 591 c0 -6 4 -13 10 -16 6 -3 7 1 4 9 -7 18 -14 21 -14 7z"/>
<path d="M4370 581 c0 -6 4 -13 10 -16 6 -3 7 1 4 9 -7 18 -14 21 -14 7z"/>
<path d="M4300 576 c0 -2 9 -6 20 -9 11 -3 18 -1 14 4 -5 9 -34 13 -34 5z"/>
<path d="M4142 531 c-9 -15 -21 -28 -27 -29 -5 0 -11 -6 -13 -14 -3 -11 -2
-11 6 0 5 8 12 13 16 13 20 -3 26 0 20 10 -4 8 1 9 17 5 21 -6 22 -5 6 4 -14
9 -16 15 -6 26 6 8 9 14 5 14 -3 0 -14 -13 -24 -29z"/>
<path d="M4179 543 c-8 -9 -9 -14 -2 -10 6 4 13 2 15 -5 3 -8 7 -6 11 5 9 23
-8 30 -24 10z"/>
<path d="M1912 541 c-11 -6 -9 -9 6 -13 15 -4 19 -2 15 8 -6 16 -4 16 -21 5z"/>
<path d="M1866 532 c-3 -5 1 -9 9 -9 8 0 12 4 9 9 -3 4 -7 8 -9 8 -2 0 -6 -4
-9 -8z"/>
<path d="M4214 529 c-3 -6 -1 -16 5 -22 9 -9 11 -8 6 5 -6 14 -2 16 21 12 16
-3 26 -3 23 1 -12 11 -49 14 -55 4z"/>
<path d="M1990 509 c0 -5 5 -7 10 -4 6 3 10 8 10 11 0 2 -4 4 -10 4 -5 0 -10
-5 -10 -11z"/>
<path d="M2020 505 c-7 -9 -11 -17 -9 -20 3 -2 10 5 17 15 14 24 10 26 -8 5z"/>
<path d="M4065 509 c-3 -3 3 -13 13 -20 9 -7 14 -9 10 -5 -4 5 -3 14 2 21 7 8
5 12 -6 12 -8 0 -17 -4 -19 -8z"/>
<path d="M2036 492 c-3 -5 1 -9 9 -9 8 0 12 4 9 9 -3 4 -7 8 -9 8 -2 0 -6 -4
-9 -8z"/>
<path d="M2073 482 c2 -12 6 -24 10 -28 3 -4 4 4 2 16 -6 30 -16 40 -12 12z"/>
<path d="M2103 475 c0 -8 4 -12 9 -9 5 3 6 10 3 15 -9 13 -12 11 -12 -6z"/>
<path d="M3976 464 c-4 -9 -4 -19 -1 -22 2 -3 7 3 11 12 4 9 4 19 1 22 -2 3
-7 -3 -11 -12z"/>
<path d="M2120 456 c0 -2 7 -7 16 -10 8 -3 12 -2 9 4 -6 10 -25 14 -25 6z"/>
<path d="M2165 450 c-3 -6 1 -7 9 -4 18 7 21 14 7 14 -6 0 -13 -4 -16 -10z"/>
<path d="M2195 439 c-4 -6 -5 -12 -2 -15 2 -3 7 2 10 11 7 17 1 20 -8 4z"/>
<path d="M3860 431 c-10 -20 4 -41 17 -27 4 3 1 6 -6 6 -9 0 -9 5 -1 20 6 11
8 20 6 20 -3 0 -10 -9 -16 -19z"/>
<path d="M2215 430 c-3 -6 1 -7 9 -4 18 7 21 14 7 14 -6 0 -13 -4 -16 -10z"/>
<path d="M3830 429 c0 -5 5 -7 10 -4 6 3 10 8 10 11 0 2 -4 4 -10 4 -5 0 -10
-5 -10 -11z"/>
<path d="M2220 410 c-9 -6 -10 -10 -3 -10 6 0 15 5 18 10 8 12 4 12 -15 0z"/>
<path d="M3936 411 c-3 -5 2 -15 12 -22 15 -12 16 -12 5 2 -7 9 -10 19 -6 22
3 4 4 7 0 7 -3 0 -8 -4 -11 -9z"/>
<path d="M2331 394 c0 -11 3 -14 6 -6 3 7 2 16 -1 19 -3 4 -6 -2 -5 -13z"/>
<path d="M3737 393 c6 -16 25 -13 31 5 2 6 -6 10 -16 9 -12 -1 -18 -6 -15 -14z"/>
<path d="M3830 400 c0 -5 5 -10 11 -10 5 0 7 5 4 10 -3 6 -8 10 -11 10 -2 0
-4 -4 -4 -10z"/>
<path d="M2246 388 c3 -5 10 -6 15 -3 13 9 11 12 -6 12 -8 0 -12 -4 -9 -9z"/>
<path d="M2299 398 c-5 -18 -6 -38 -1 -34 7 8 12 36 6 36 -2 0 -4 -1 -5 -2z"/>
<path d="M2422 384 c-7 -8 -8 -14 -3 -14 10 0 25 19 20 25 -2 1 -10 -3 -17
-11z"/>
<path d="M3700 385 c-7 -9 -10 -18 -7 -22 4 -3 9 2 13 11 3 9 11 13 17 9 6 -3
7 -1 3 5 -9 15 -11 15 -26 -3z"/>
<path d="M2455 380 c-6 -10 1 -14 19 -11 5 1 6 -5 3 -13 -4 -9 -3 -17 1 -20 4
-3 8 4 9 14 2 23 -22 46 -32 30z"/>
<path d="M3774 366 c1 -8 5 -18 8 -22 4 -3 5 1 4 10 -1 8 -5 18 -8 22 -4 3 -5
-1 -4 -10z"/>
<path d="M3826 368 c3 -5 10 -6 15 -3 13 9 11 12 -6 12 -8 0 -12 -4 -9 -9z"/>
<path d="M3864 372 c4 -3 14 -7 22 -8 9 -1 13 0 10 4 -4 3 -14 7 -22 8 -9 1
-13 0 -10 -4z"/>
<path d="M2525 359 c-4 -6 -5 -12 -2 -15 2 -3 7 2 10 11 7 17 1 20 -8 4z"/>
<path d="M2550 355 c-7 -9 -10 -18 -6 -22 3 -3 6 -1 6 6 0 7 4 10 8 7 5 -3 9
1 9 9 0 19 -2 19 -17 0z"/>
<path d="M3576 355 c-11 -8 -15 -15 -9 -15 7 0 15 5 18 10 9 15 23 12 28 -5 4
-12 5 -11 3 1 -2 23 -17 26 -40 9z"/>
<path d="M3737 355 c3 -8 9 -12 14 -9 12 7 11 11 -5 17 -10 4 -13 1 -9 -8z"/>
<path d="M2430 350 c0 -5 5 -10 10 -10 6 0 10 5 10 10 0 6 -4 10 -10 10 -5 0
-10 -4 -10 -10z"/>
<path d="M2605 349 c-4 -6 -5 -12 -2 -15 2 -3 7 2 10 11 7 17 1 20 -8 4z"/>
<path d="M3473 345 c0 -8 4 -15 9 -15 4 0 8 7 8 15 0 8 -4 15 -8 15 -5 0 -9
-7 -9 -15z"/>
<path d="M3507 344 c7 -18 31 -25 39 -12 5 7 2 8 -6 3 -9 -6 -12 -4 -8 6 4 10
-1 15 -12 15 -10 0 -16 -6 -13 -12z"/>
<path d="M2764 328 c-4 -7 -4 -10 1 -6 4 4 14 3 21 -3 9 -7 14 -6 20 3 4 7 4
10 -1 6 -4 -4 -14 -3 -21 3 -9 7 -14 6 -20 -3z"/>
<path d="M3275 332 c-10 -10 6 -21 22 -15 12 5 14 3 8 -7 -5 -8 -4 -11 3 -6
15 9 5 33 -13 33 -8 0 -17 -2 -20 -5z"/>
<path d="M3336 323 c-8 -20 -8 -23 5 -23 5 0 8 4 4 9 -3 5 5 11 17 13 l23 3
-22 7 c-14 4 -24 1 -27 -9z"/>
<path d="M2676 315 c4 -8 8 -15 10 -15 2 0 4 7 4 15 0 8 -4 15 -10 15 -5 0 -7
-7 -4 -15z"/>
<path d="M2816 315 c-3 -8 -1 -15 4 -15 6 0 10 7 10 15 0 8 -2 15 -4 15 -2 0
-6 -7 -10 -15z"/>
<path d="M3109 328 c0 -2 -2 -10 -4 -18 -2 -8 -6 -24 -9 -35 -5 -15 -4 -15 5
3 7 12 18 22 26 22 7 0 13 4 13 10 0 5 -7 6 -17 3 -11 -4 -14 -3 -9 5 4 7 5
12 2 12 -3 0 -6 -1 -7 -2z"/>
<path d="M3150 320 c0 -6 4 -9 9 -5 5 3 12 -2 14 -10 4 -12 5 -12 3 1 -1 19
-26 32 -26 14z"/>
<path d="M3193 304 c0 -17 2 -22 8 -13 4 7 5 17 2 23 -4 5 1 7 11 3 10 -4 15
-3 11 3 -12 20 -32 10 -32 -16z"/>
<path d="M3246 320 c6 -8 10 -23 8 -33 -1 -11 0 -16 4 -13 12 13 10 36 -6 48
-15 11 -15 11 -6 -2z"/>
<path d="M3416 315 c4 -8 8 -15 10 -15 2 0 4 7 4 15 0 8 -4 15 -10 15 -5 0 -7
-7 -4 -15z"/>
<path d="M3549 313 c-13 -16 -12 -17 4 -4 9 7 17 15 17 17 0 8 -8 3 -21 -13z"/>
<path d="M2650 311 c0 -6 4 -13 10 -16 6 -3 7 1 4 9 -7 18 -14 21 -14 7z"/>
<path d="M3490 312 c0 -4 10 -9 22 -9 18 -2 20 0 8 7 -18 12 -30 13 -30 2z"/>
<path d="M3595 310 c3 -5 8 -10 11 -10 2 0 4 5 4 10 0 6 -5 10 -11 10 -5 0 -7
-4 -4 -10z"/>
<path d="M2755 300 c-3 -5 -1 -10 4 -10 6 0 11 5 11 10 0 6 -2 10 -4 10 -3 0
-8 -4 -11 -10z"/>
<path d="M3069 293 c-13 -16 -12 -17 4 -4 16 13 21 21 13 21 -2 0 -10 -8 -17
-17z"/>
<path d="M3215 290 c-3 -6 1 -7 9 -4 18 7 21 14 7 14 -6 0 -13 -4 -16 -10z"/>
<path d="M3395 290 c-3 -5 -1 -10 4 -10 6 0 11 5 11 10 0 6 -2 10 -4 10 -3 0
-8 -4 -11 -10z"/>
<path d="M2829 273 c-13 -16 -12 -17 4 -4 16 13 21 21 13 21 -2 0 -10 -8 -17
-17z"/>
<path d="M2915 250 c-3 -5 -1 -10 4 -10 6 0 11 5 11 10 0 6 -2 10 -4 10 -3 0
-8 -4 -11 -10z"/>
<path d="M3270 250 c0 -5 5 -10 11 -10 5 0 7 5 4 10 -3 6 -8 10 -11 10 -2 0
-4 -4 -4 -10z"/>
</g>
</svg>
