<?xml version="1.0" encoding="utf-8"?>
<!-- Generator: Adobe Illustrator 25.2.1, SVG Export Plug-In . SVG Version: 6.00 Build 0)  -->
<svg version="1.1" id="レイヤー_1" xmlns="http://www.w3.org/2000/svg" xmlns:xlink="http://www.w3.org/1999/xlink" x="0px"
	 y="0px" viewBox="0 0 760 486.8" style="enable-background:new 0 0 760 486.8;" xml:space="preserve">
<style type="text/css">
	.st0{fill:#FFFFFF;}
	.st1{fill:url(#SVGID_1_);}
</style>
<g>
	<polygon points="54.2,29 63.4,28.7 65,20.9 661.8,0 760,213.8 634.6,414.9 628.9,414.9 623.8,423 275.6,427.4 222.8,478.6 
		222.5,476.5 212,486.8 204.9,428.3 127.1,429.2 0,304.4 	"/>
	<polygon class="st0" points="625.9,399.4 277.6,403.7 234.5,445.5 229.4,404.3 144.2,405.4 27.7,291 77.9,36 652,16 742.3,212.7 	
		"/>
</g>
<g>
	<path d="M110.3,112.9l4.2,4c0.9,0.8,1.4,1.3,1.4,1.6c-0.2,0.2-0.7,0.5-1.6,0.9c-1.6,3.1-3.1,5.8-4.7,8c-1.6,2.3-3,4.5-4.5,6.3
		c5.6,4.1,12.4,10.1,20.4,18l-5.4,4.7c-8.4-8.4-14.8-14.2-19.2-17.3c-3.1,3.3-6.5,6.5-10.1,9.6c-3.4,3-7.2,5.7-11.3,8.2l-4.7-5.4
		c13.9-8.4,24.2-18.8,30.9-30.9L81,122.1l-1.2-6.8l28.6-1.4L110.3,112.9z"/>
	<path d="M158.5,108c0.2,0.5-0.2,0.9-0.9,1.2l1.9,8.9l17.3-2.1l0.9,6.6l-16.6,2.1l2.1,9.1l22.3-2.6l0.9,6.6l-21.6,2.6l4.5,19
		l-7.3,1.2l-4.2-19.2l-24.1,2.6l-0.7-6.8l23.4-2.3l-2.1-9.1l-16.2,1.6l-0.9-6.8l15.2-1.4l-2.1-11l6.1-0.7
		C157.6,107.1,158.3,107.4,158.5,108z"/>
	<path d="M236.7,114.8l3.5,3c1.7,1.6,1.6,2.3-0.2,2.3c-4.7,7.5-10.6,14.9-17.8,22.3c1.4,1.4,2.9,2.8,4.5,4.2
		c1.4,1.3,2.7,2.7,3.8,4.2l-5.4,4.9c-2.8-3.4-6.1-6.9-9.8-10.3c-3.9-3.6-8-6.8-12.2-9.6l4-5.2c3.8,2.5,7.2,5,10.3,7.5
		c5.2-5.2,9.5-10.5,12.9-15.9l-36.6,1.4l-0.9-6.8l42-1.4L236.7,114.8z"/>
	<path d="M287.4,107.5v6.1h12v6.1h-12v5.2h16.4v6.1h-8.4v4.5h7v6.1h-7V156c0,0.6-0.1,1.2-0.2,1.9c-0.6,2-2.1,3-4.5,3h-6.6l-0.7-6.6
		h4c0.6,0,1-0.2,1.2-0.5c0.2-0.3,0.2-0.7,0.2-1.2v-11.3h-19.5v-6.1h19.5V131h-20.4v22.3h-6.6v-1.9h-4.7v4.2h-6.6v-44.8h17.8v14.1
		h12.4v-5.2H271v-6.1h9.8v-8h5.6C288.4,105.8,288.7,106.4,287.4,107.5z M257.2,116.9v10.3h4.7v-10.3H257.2z M257.2,133.3v12h4.7v-12
		H257.2z M285.8,149.2l-6.1,4c-1.6-3-3.4-5.5-5.6-7.7l5.9-3.8C282,143.9,283.9,146.4,285.8,149.2z"/>
	<path d="M332.1,128.1h-16.6v33h-6.6v-53.7h23.2V128.1z M315.5,113.1v1.9h10.1v-1.9H315.5z M315.5,120.6v1.9h10.1v-1.9H315.5z
		 M346.4,154.6h-6.1v-1.4h-11.5v2.8h-6.1v-25.8h23.7V154.6z M328.8,135.9v3h11.5v-3H328.8z M328.8,144.6v3h11.5v-3H328.8z
		 M359.8,155.6c0,0.6-0.1,1.2-0.2,1.9c-0.6,2-2.1,3-4.5,3h-5.6l-0.7-6.6h3c0.6,0,1-0.2,1.2-0.5c0.2-0.3,0.2-0.7,0.2-1.2v-24.1h-16.9
		v-20.6h23.4V155.6z M342.9,113.1v1.9h10.3v-1.9H342.9z M342.9,120.6v1.9h10.3v-1.9H342.9z"/>
	<path d="M380.1,112.4c0.2,0.5-0.3,0.8-1.4,0.9c-2.5,14.7-3,29.3-1.4,43.8l-7.3,0.5c-1.6-17.2-0.9-33.2,1.9-48l5.9,1.4
		C379.1,111.4,379.9,111.8,380.1,112.4z M418.5,146.2v7h-17.3c-3,0-5.7-0.7-8.2-2.1c-2.7-1.4-5.2-3.3-7.5-5.6l4.2-4.9
		c1.9,1.9,3.7,3.3,5.4,4.2c1.7,0.9,4.1,1.4,7,1.4H418.5z M415.2,123.5c-9.7-0.3-19.1,0.2-28.1,1.4v-6.8c9.4-1.1,18.8-1.6,28.1-1.4
		V123.5z"/>
	<path d="M466,109.6c0.2,0.6-0.2,1.1-1.2,1.4c0.2,4.1,0.2,8,0.2,12h13.8v6.6h-13.6c0.5,7.8-0.9,13.9-4,18.3
		c-3.1,4.4-8.4,8.4-15.9,12.2l-4.5-6.1c6.4-2.8,11.1-5.9,14.1-9.4c2.7-3.6,3.8-8.6,3.3-15h-13.8l0.2,12.4h-7l-0.2-12.4h-13.1V123
		h13.1l-0.2-12.4h5.9c1.2,0,2,0.3,2.3,0.9c0.2,0.6-0.2,1.1-1.2,1.4l0.2,10.1H458c0-4.7-0.1-9.5-0.2-14.3h5.9
		C464.9,108.7,465.7,109,466,109.6z"/>
	<path d="M509.7,112c-0.2,0.5-0.6,0.7-1.4,0.7c-0.8,1.6-1.5,3-2.1,4.5h15l2.3-0.9l4.5,4c0.8,0.8,0.7,1.5-0.2,2.1
		c-1.1,8.8-4.5,16.5-10.3,23.2c-5.6,6.6-12.2,11.6-19.7,15l-4.2-6.1c7.3-3.3,13.4-7.4,18-12.4c4.7-5.2,7.6-11.3,8.7-18.3h-17.3
		c-1.1,1.9-2.7,4.2-4.7,7c-1.9,2.5-4.2,5.2-7,8l-5.2-4.5c4.1-3.8,7.6-7.9,10.5-12.4c2.8-4.8,5-9.6,6.6-14.3l5.4,2.8
		C509.5,110.8,509.9,111.4,509.7,112z"/>
	<path d="M555.6,139.6c-1.4-3.8-3.4-8-6.1-12.7l5.4-2.8c2.7,4.2,4.8,8.2,6.3,12L555.6,139.6z M589.3,124.9c0,0.5-0.4,0.7-1.2,0.7
		c-1.4,11.3-4.3,19.1-8.7,23.4c-4.8,4.7-10.9,8.4-18.3,11.3l-4.2-6.1c7.5-2.5,13.4-5.6,17.6-9.4c4.1-4.1,6.3-11.7,6.8-23l6.1,1.6
		C588.7,123.8,589.3,124.2,589.3,124.9z M573.1,133.3l-6.1,2.8c-2-4.5-4.1-8.7-6.1-12.4l5.4-2.8C568.7,124,571,128.1,573.1,133.3z"
		/>
	<path d="M626.3,109.2c0.2,0.5-0.2,0.9-0.9,1.4c0.2,6.3,0.5,12.3,0.9,18c5.6-2,11.5-3.7,17.6-4.9l2.1,6.8c-8.3,0.6-15.9,2.7-23,6.3
		c-6.1,3.1-9.1,6.2-9.1,9.1c0,2.2,0.6,3.7,1.9,4.5c0.9,0.6,2.8,0.9,5.6,0.9h24.1l-0.5,6.6h-24.6c-4.5,0-7.9-1.1-10.1-3.3
		c-2.2-2.2-3.3-5-3.3-8.4c0-3.1,1.3-6,4-8.7c2.3-2.3,5.2-4.4,8.7-6.1c-0.5-2.3-0.8-5.9-0.9-10.5c-0.2-4.7-0.2-8.9-0.2-12.7h5.4
		C625.3,108.2,626.1,108.5,626.3,109.2z"/>
</g>
<linearGradient id="SVGID_1_" gradientUnits="userSpaceOnUse" x1="393.8614" y1="205.2429" x2="599.2256" y2="410.607" gradientTransform="matrix(1 0 0 -1 0 602)">
	<stop  offset="0" style="stop-color:#FFFCD1"/>
	<stop  offset="0.1118" style="stop-color:#FCF5C0"/>
	<stop  offset="0.3329" style="stop-color:#F4E493"/>
	<stop  offset="0.3708" style="stop-color:#F3E18B"/>
	<stop  offset="0.6854" style="stop-color:#F1C500"/>
	<stop  offset="1" style="stop-color:#CB9B0C"/>
</linearGradient>
<rect x="304.3" y="281" class="st1" width="384.5" height="26.2"/>
<g>
	<path d="M117.3,285.4h-7.5v-1.6H78.4v-7h31.4V258H78.4v-7h38.9V285.4z"/>
	<path d="M177.2,282.1h-7.5v-1.6H146v2.8h-7.5v-37.5h38.7V282.1z M146,252.8v20.6h23.7v-20.6H146z"/>
	<path d="M220.9,240.4c0.2,0.6-0.2,1.1-1.2,1.4c0.2,4.1,0.3,8.1,0.5,12.2h21.1v6.6h-21.1c0.5,8-1,14.3-4.5,19
		c-3.3,4.5-7,8.3-11,11.3l-5.2-4.9c9.7-6.1,14.2-14.5,13.6-25.3h-22.7V254h22.7c-0.2-4.8-0.3-9.7-0.5-14.5h5.9
		C220,239.5,220.8,239.8,220.9,240.4z"/>
	<path d="M261.4,238.5v8h4l0.7-0.9l3.3,3.5c0.6,0.6,0.9,1.1,0.9,1.4c0,0.3-0.5,0.5-1.4,0.7c-2.8,4.2-5.3,7.7-7.5,10.3v1.2
		c2.7,1.1,4.9,2.4,6.8,4v-6.3h3.8V239h25.5v21.3h4V287c0,0.6-0.1,1.2-0.2,1.9c-0.6,2-2.1,3-4.5,3h-4.5l-0.7-5.6h2.3
		c0.6,0,1-0.2,1.2-0.5c0.2-0.3,0.2-0.7,0.2-1.2v-18.8h-21.1v26.3h-6.1v-24.1l-2.6,5.4c-1.6-1.7-3-3-4.2-4v22.7h-6.6v-23.4
		c-2.7,2.7-4.6,4.4-5.9,5.2l-3-6.3c1.2-0.8,2.4-1.6,3.5-2.6c4.8-4.1,8.6-8.2,11.3-12.4H248v-6.1h6.8v-9.8h5.6
		C262.3,236.8,262.6,237.4,261.4,238.5z M293,284.7h-10.5v1.4h-6.1V269H293V284.7z M278,244.6v15.7h3.3v-12.4h10.1v-3.3H278z
		 M282.5,274.6v4.5h4.5v-4.5H282.5z M287.4,253.5v6.8h4v-6.8H287.4z"/>
	<path d="M347.3,240.6c0.2,0.6-0.2,1.1-1.2,1.4c0.2,4.1,0.2,8,0.2,12h13.8v6.6h-13.6c0.5,7.8-0.9,13.9-4,18.3
		c-3.1,4.4-8.4,8.4-15.9,12.2l-4.5-6.1c6.4-2.8,11.1-5.9,14.1-9.4c2.7-3.6,3.8-8.6,3.3-15h-13.8L326,273h-7l-0.2-12.4h-13.1V254
		h13.1l-0.2-12.4h5.9c1.2,0,2,0.3,2.3,0.9c0.2,0.6-0.2,1.1-1.2,1.4l0.2,10.1h13.6c0-4.7-0.1-9.5-0.2-14.3h5.9
		C346.2,239.7,347,240,347.3,240.6z"/>
	<path d="M376.5,275.6c-1.7,3.1-3.5,5.9-5.4,8.2L365,280c1.9-2.3,3.8-5.1,5.6-8.2c2-3.3,3.8-6.9,5.4-10.8l5.4,2.6
		c1.1,0.5,1.6,1,1.4,1.6c0,0.6-0.5,0.9-1.4,0.9C380,269.1,378.4,272.3,376.5,275.6z M395.7,238.8c0.2,0.5-0.2,0.9-0.9,1.4v11h21.6
		v6.6h-21.6v33h-7v-33h-21.3v-6.6h21.3v-13.1h6.1C394.9,238.1,395.6,238.3,395.7,238.8z M418.7,278.8l-5.6,4.2
		c-1.9-2.8-4-5.9-6.3-9.1c-2.5-3.3-4.9-6.1-7.3-8.4l5.4-4C409.9,266.5,414.5,272.3,418.7,278.8z M418.4,237.6
		c1.4,1.4,2.1,3.1,2.1,5.2c0,2-0.7,3.8-2.1,5.2s-3.1,2.1-5.2,2.1c-2,0-3.8-0.7-5.2-2.1s-2.1-3.1-2.1-5.2c0-2,0.7-3.8,2.1-5.2
		s3.1-2.1,5.2-2.1C415.3,235.5,417,236.2,418.4,237.6z M415.9,245.3c0.6-0.6,0.9-1.5,0.9-2.6c0-0.9-0.3-1.7-0.9-2.3
		c-0.8-0.8-1.6-1.2-2.6-1.2s-1.7,0.3-2.3,0.9c-0.8,0.8-1.2,1.6-1.2,2.6s0.4,1.8,1.2,2.6c0.6,0.6,1.4,0.9,2.3,0.9
		C414.4,246.3,415.2,245.9,415.9,245.3z"/>
	<path d="M422.8,267.8v-7h54.1v7H422.8z"/>
	<path d="M508.5,240.4c0.2,0.5-0.2,0.9-0.9,1.4v15.5c3.8,0.9,7.5,2.2,11.3,3.8c3.6,1.6,7.3,3.4,11,5.4l-3.5,5.6
		c-3.3-1.9-6.3-3.4-9.1-4.7c-3.1-1.4-6.3-2.5-9.6-3.3v25.1h-7v-49.5h6.1C507.7,239.7,508.3,239.9,508.5,240.4z"/>
	<path d="M559.5,241.1c0.2,0.3,0.2,0.6,0,0.9c-0.2,0.2-0.5,0.3-1.2,0.5c-1.1,4.2-2.4,7.9-4,11c1.7,0.8,1.8,1.5,0.2,2.1v35.9H548
		v-27.4c-1.4,2-2.9,3.8-4.5,5.4l-4.5-5.9c2.3-1.9,4.5-4.3,6.3-7.3c3.8-5.8,6.1-11.9,7-18.3l5.6,2.1
		C558.7,240.5,559.2,240.8,559.5,241.1z M584.8,240.2v11.5h9.6v6.1h-9.6v28.8c0,0.6-0.1,1.2-0.2,1.9c-0.6,2-2.1,3-4.5,3h-8.4
		l-0.7-6.6h5.9c0.6,0,1-0.2,1.2-0.5c0.2-0.3,0.2-0.7,0.2-1.2v-25.5h-20.9v-6.1h20.9v-13.4h5.6C585.7,238.4,586.1,239.1,584.8,240.2z
		 M567.9,278.4c-2.3-4.5-5-8.7-8-12.4l5.6-3.8c3.1,3.4,5.9,7.5,8.4,12.2L567.9,278.4z"/>
	<path d="M628.8,237.8c0.2,0.6-0.2,1.1-0.9,1.4c-0.3,1.9-0.1,4.1,0.7,6.8c5.5-0.6,9.6-1.4,12.4-2.3l1.9,6.3
		c-3.8,0.9-7.8,1.6-12.2,2.1c0.6,1.4,1.2,2.8,1.9,4.2c5.5-0.6,10.5-1.8,15-3.5l2.3,6.8c-5.9,1.3-10.5,2.1-13.6,2.6
		c3.3,3.8,6.1,6.5,8.4,8.2l-4.9,4.9c-3.1-0.8-5.6-1.2-7.5-1.4c-2.3-0.3-4.7-0.5-7-0.5c-2,0-3.8,0.1-5.4,0.2
		c-1.9,0.2-3.4,0.6-4.5,1.4c-1.1,0.8-1.6,2-1.6,3.5c0,3.4,3.4,5.2,10.1,5.2h15.9l-0.9,6.6h-18c-4.5,0-8.1-1.3-10.8-4
		c-2.2-2.2-3.3-4.6-3.3-7.3c0-2.7,0.9-4.9,2.8-6.8c1.2-1.2,2.8-2.3,4.7-3c4.2-1.7,10.3-2.2,18.3-1.4c-0.8-1.1-1.8-2.6-3-4.5
		c-8.6,0.8-17,1.3-25.3,1.4l-0.7-6.8c7.5,0.3,14.9,0.1,22.3-0.7c-0.5-1.4-1-2.8-1.6-4.2c-7.7,0.6-13.9,0.9-18.8,0.7l-0.5-6.6
		c8.3,0.3,14,0.2,17.1-0.2c-0.6-3.3-1.2-6.6-1.6-9.8h5.9C627.9,237.1,628.8,237.4,628.8,237.8z"/>
	<path d="M678.4,290.6v-10.3h5.2h5.2v10.3H678.4z M679.8,275.3l-1.2-36.6h9.8l-1.2,36.6h-3.8H679.8z"/>
</g>
</svg>
