<?xml version="1.0" encoding="utf-8"?>
<!-- Generator: Adobe Illustrator 25.2.1, SVG Export Plug-In . SVG Version: 6.00 Build 0)  -->
<svg version="1.1" id="レイヤー_1" xmlns="http://www.w3.org/2000/svg" xmlns:xlink="http://www.w3.org/1999/xlink" x="0px"
	 y="0px" viewBox="0 0 760 486.8" style="enable-background:new 0 0 760 486.8;" xml:space="preserve">
<style type="text/css">
	.st0{fill:#FFFFFF;}
	.st1{fill:url(#SVGID_1_);}
</style>
<g>
	<polygon points="54.2,29 63.4,28.7 65,20.9 661.8,0 760,213.8 634.6,414.9 628.9,414.9 623.8,423 275.6,427.4 222.8,478.6 
		222.5,476.5 212,486.8 204.9,428.3 127.1,429.2 0,304.4 	"/>
	<polygon class="st0" points="625.9,399.4 277.6,403.7 234.5,445.5 229.4,404.3 144.2,405.4 27.7,291 77.9,36 652,16 742.3,212.7 	
		"/>
</g>
<linearGradient id="SVGID_1_" gradientUnits="userSpaceOnUse" x1="161.8062" y1="356.4932" x2="328.3241" y2="523.011" gradientTransform="matrix(1 0 0 -1 0 602)">
	<stop  offset="0" style="stop-color:#FFFCD1"/>
	<stop  offset="0.1118" style="stop-color:#FCF5C0"/>
	<stop  offset="0.3329" style="stop-color:#F4E493"/>
	<stop  offset="0.3708" style="stop-color:#F3E18B"/>
	<stop  offset="0.6854" style="stop-color:#F1C500"/>
	<stop  offset="1" style="stop-color:#CB9B0C"/>
</linearGradient>
<rect x="89.7" y="151.1" class="st1" width="310.7" height="22.3"/>
<g>
	<path d="M136.4,247.4c-0.2,0.3-0.6,0.6-1.2,0.7c-0.8,1.3-1.6,2.8-2.5,4.4h9.8v5.9h-14v2.5h11.1v5.9h-11.1v3.4h15.8v5.9h-6.6
		l3.7,2.5c1,0.7,1.4,1.2,1.2,1.7c-0.2,0.3-0.7,0.5-1.5,0.5l-5.4,5.4c3,2.8,6.2,5.3,9.6,7.4l-4.7,5.4c-4.4-3.1-8.5-7.1-12.1-11.8
		v10.1c0,0.7-0.1,1.3-0.2,2c-0.7,2.1-2.2,3.2-4.7,3.2h-5.4l-0.7-5.9h2.7c0.7,0,1.1-0.2,1.2-0.5c0.2-0.3,0.2-0.7,0.2-1.2v-4.7
		l-8.9,6.6c0,0.5-0.1,0.9-0.2,1.2c-0.2,0.3-0.4,0.5-0.7,0.5c-0.5,0-1-0.4-1.5-1.2l-3.4-4.9l14.8-9.1v-7.1h-6.2
		c1.3,1.1,3,3.1,4.9,5.9l-4.9,3.9c-1.6-2.3-3.4-4.4-5.2-6.4l4.7-3.4h-5.4l-3.9,5.9c-1.1-1.5-2.4-2.9-3.7-4.2V303h-6.9v-23.6
		c-1.5,3.4-3.3,6.4-5.4,8.9l-4.9-6.2c1.1-1.1,2.2-2.5,3.2-3.9c3.1-4.8,5.4-9.8,6.9-15.3h-7.6v-6.4h7.9v-11.6h5.9c2,0.2,2.3,0.8,1,2
		v9.6h5.9v6.4H102v6.4c1.8,1.5,3.6,3,5.4,4.4v-3.4h14.3v-3.4h-10.1v-5.9h10.1v-2.5h-13v-5.9h8.1c-1-1.3-2.2-2.6-3.7-3.9l4.7-3.4
		c2.3,2,4.3,4,5.9,6.2l-2.2,1.2h4.7c1.1-2.6,2.3-5.5,3.4-8.6l5.2,1.7C136.2,246.1,136.7,246.7,136.4,247.4z M128.3,276.2
		c0.7,1.3,1.3,2.5,2,3.7c0.7,0.8,1.2,1.5,1.7,2c1.5-1.6,2.9-3.5,4.2-5.7H128.3z"/>
	<path d="M175.5,258.2h18.2l1.5-1.2l4.9,3.2c2.3,1.5,2.5,2.4,0.5,2.7c-1.6,3-3.9,7-6.9,12.1c-2.8,4.8-4.8,7.9-5.9,9.4
		c2.3,1.6,5.3,4,9.1,7.1l-4.7,5.2c-3.4-3-7.1-5.7-10.8-8.1c-3.9-2.6-8-5.2-12.3-7.6l3.4-5.2c3.4,1.8,6.6,3.5,9.6,5.2
		c1-1.1,2.7-3.8,5.2-7.9c2.3-4.3,3.7-6.9,4.2-7.9h-18.9c-1.5,3-3.5,6.5-6.2,10.6c-2.6,4.1-5.4,7.6-8.4,10.6l-5.4-4.4
		c8.2-8.2,14.6-19.5,19.2-34l5.7,2.5c1,0.3,1.6,0.8,2,1.5c0.2,0.7-0.4,1-1.7,1C177.1,254.6,176.4,256.4,175.5,258.2z"/>
	<path d="M239,247.9c0.2,0.5-0.2,0.8-1.2,1c-0.7,2.3-1.3,4.6-2,6.9c2.6-0.5,5.3-1.1,8.1-1.7l1.2,7.1c-3.9,0.7-7.8,1.2-11.6,1.7
		c-1,2.8-2.8,7.3-5.4,13.5c-2.5,5.7-4.7,10.3-6.6,13.8l-6.4-3.9c2-3,4.3-7.1,6.9-12.3c1.8-3.6,3.2-7.1,4.2-10.3
		c-3.9,0.3-7.1,0.5-9.6,0.5l-0.7-7.4c4.3,0,8.4-0.1,12.6-0.2c1.1-3.8,2.2-7.8,3.2-12.1l5.7,2C238.5,246.7,239,247.2,239,247.9z
		 M256,268c0,0.3-0.2,0.7-0.7,1.2v14.3c4.8,1.6,9.2,3.9,13.3,6.6l-3.7,5.9c-3.6-2.3-6.9-4-9.8-5.2c-0.3,3-1.4,5.3-3.2,7.1
		c-2.1,2.1-5.4,3.2-9.8,3.2c-3.1,0-5.9-0.8-8.4-2.5c-2.6-2-3.9-4.5-3.7-7.6c0-3.3,1.6-5.9,4.9-7.9c3.8-2.1,8.3-2.6,13.5-1.5v-14.5
		h5.9C255.3,267.3,255.9,267.6,256,268z M237.8,289.2c-0.8,0.7-1.2,1.5-1.2,2.5s0.6,1.8,1.7,2.5c1,0.5,2.4,0.7,4.2,0.7
		c1.5,0,2.9-0.5,4.2-1.5c1-1,1.6-2.5,1.7-4.7c-1.1-0.3-2.1-0.5-2.7-0.5c-1.3-0.2-2.5-0.2-3.4-0.2C240.1,288,238.6,288.4,237.8,289.2
		z M265.6,267.6c-3.6-2.3-9.5-5.1-17.7-8.4l3-5.4c6.4,2,12.3,4.6,17.7,7.9L265.6,267.6z"/>
	<path d="M315.3,246.1c0.2,0.5,0.1,0.8-0.2,1c-0.2,0.2-0.5,0.2-1,0.2c-0.3,0.7-0.7,1.2-1,1.7h18.7v6.4h-10.3c0.7,1.1,1.3,2.7,2,4.7
		l-7.9,1.2c-0.3-2.1-0.8-4.1-1.5-5.9h-3.9c-1.1,2.3-2.9,4.5-5.2,6.6l-5.2-4.2l2.5-2.5h-5.2c0.2,0.2,0.3,0.4,0.5,0.7
		c0.7,1,1.1,2,1.2,3l-4.2,0.5c0.5,0.2,0.8,0.4,1,0.7c0.2,0.3,0.2,0.7,0,1c-0.2,0.3-0.5,0.6-1,0.7v1.5h12.1v5.4h-12.1v1.7h9.6v16.7
		h-9.6v2h11.6v5.4h-11.6v7.4h-6.4v-7.4h-12.3v-5.4h12.3v-2h-9.4v-16.7h9.4V269h-11.3v-5.4h11.3v-4.2h3c-0.3-1.3-0.8-2.6-1.5-3.9
		h-3.9c-1.3,2-3.4,4.3-6.2,7.1L275,258c1.1-1,2.3-2.1,3.4-3.4c3-3.4,5.2-7.1,6.6-11.1l4.7,1.5c1,0.3,1.6,0.8,1.7,1.5
		c0,0.3-0.1,0.6-0.2,0.7c-0.2,0.2-0.5,0.2-1,0.2c-0.3,0.5-0.7,1.1-1,1.7h16v2.2c1.5-3,2.5-5.7,3-8.1l5.4,1.7
		C314.6,245.2,315.2,245.7,315.3,246.1z M284.8,275.2v1.7h3.4v-1.7H284.8z M284.8,281.3v1.7h3.7v-1.7H284.8z M294.7,275.2v1.7h3.7
		v-1.7H294.7z M294.9,281.3v1.7h3.4v-1.7H294.9z M330.1,281.8c0,0.7-0.1,1.3-0.2,2c-0.7,2.1-2.2,3.2-4.7,3.2h-5.7l-0.7-6.9h3
		c0.7,0,1.1-0.2,1.2-0.5c0.2-0.3,0.2-0.7,0.2-1.2v-9.6h-9.1v24.1c0,0.5,0.1,0.9,0.2,1.2c0.2,0.3,0.6,0.5,1.2,0.5h8.4
		c0.8,0,1.4-0.2,1.7-0.7c0.3-0.5,0.6-1.2,0.7-2.2l0.5-3.4l7.4,1.2l-1.2,5.9c-0.7,2.5-1.8,4.2-3.4,5.2c-0.7,0.3-1.2,0.5-1.7,0.5
		h-15.8c-3.3-0.2-4.9-1.9-4.9-5.2v-33.5h22.9V281.8z"/>
	<path d="M394.3,301.8h-6.9v-2h-40.1v2.2h-6.9v-54.9h53.9V301.8z M347.3,253.5v39.9h4.9l-3.4-5.2c2.5-0.8,4.3-1.8,5.7-3
		c2.1-1.8,3.2-3.3,3.2-4.4v-0.7h-8.9v-6.4h8.9V268h-7.4v-6.4h7.4v-7.1h5.9c2,0.2,2.3,0.8,1,2v5.2h6.2v-7.1h5.9c2,0.2,2.3,0.8,1,2
		v5.2h6.9v6.4h-6.9v5.7h8.4v6.4h-8.4v12.1h-6.9v-12.1h-6.2v0.7c0,0.7-0.2,1.4-0.5,2.2c-0.5,1.5-1.6,3.1-3.2,4.9
		c-1.8,2-4.4,3.8-7.9,5.4h34.5v-39.9H347.3z M364.5,268v5.7h6.2V268H364.5z"/>
	<path d="M455.6,258.4c-4.9-0.5-9-0.2-12.3,0.7c-5.3,1.5-9.1,3.4-11.6,5.9c-3.3,3.3-4.9,7.2-4.9,11.8c0,3.9,1.2,7.1,3.7,9.6
		c3.3,3.3,9.8,5.1,19.4,5.4l-2,7.4c-2.5-0.2-5-0.5-7.6-1c-2.6-0.5-5.3-1.2-8.1-2.2c-4.4-1.8-7.5-4.3-9.4-7.4c-2-3.3-3-6.6-3-9.8
		c-0.2-3.4,0.2-6.5,1.2-9.1c0.8-2.8,2.8-5.6,5.9-8.4c-6.1,0.8-13.2,1.9-21.4,3.2l-1.5-7.9c17.4-1.1,34.2-3.1,50.4-5.9L455.6,258.4z
		 M452.6,273.7l-3.4,3.9c-3.1-2.6-6.6-5-10.3-7.1l3.4-3.7C447.1,269.6,450.5,271.9,452.6,273.7z M457.6,267.8l-3.4,3.9
		c-3.4-2.5-6.9-4.8-10.3-7.1l3.2-3.7C450.9,263.2,454.4,265.5,457.6,267.8z"/>
	<path d="M483.4,246.1v5.2h8.4v6.4h-8.4v4.2h10.3v6.4h-3.7c-0.8,1.8-1.6,3.6-2.5,5.4h5.4v6.4h-9.6v3.9h9.6v6.4h-9.6v12.1h-6.9v-12.1
		h-10.3V284h10.3v-3.9h-10.3v-6.4h5.9l-2.2-5.4h-5.7v-6.4h12.3v-4.2h-8.9v-6.4h8.9v-7.1h5.9C484.4,244.3,484.7,245,483.4,246.1z
		 M479.2,273.7h1.7l2.2-5.4H477L479.2,273.7z M518.8,259.7c0,0.7-0.1,1.3-0.2,2c-0.7,2.1-2.2,3.2-4.7,3.2h-7.1L506,258h4.4
		c0.7,0,1.1-0.2,1.2-0.5c0.2-0.3,0.2-0.7,0.2-1.2v-2.7h-11.3v13h16l0.7-1l3.7,3c1,0.7,0.9,1.3-0.2,2c-0.5,2.8-1.1,5.7-2,8.6
		c-1.3,4.1-2.6,7.2-3.9,9.4c1.5,2,3.2,3.7,5.2,5.2c1.1,0.8,2.3,1.6,3.4,2.2l-4.2,6.2c-3-1.6-5.7-4.1-8.1-7.4c-2.6,3.3-5.3,6-7.9,8.1
		l-2.7-4.9v4.4h-6.4v-55.1h24.6V259.7z M500.6,273v22.6c0.7-0.3,2.2-1.7,4.7-4.2c0.8-1,1.4-1.8,1.7-2.5c-2.8-5.2-4.7-10.6-5.7-16
		H500.6z M507.8,273c0.5,3.3,1.6,6.6,3.2,9.8c0.8-1.8,1.6-3.8,2.2-5.9c0.5-1.5,0.7-2.8,0.7-3.9H507.8z"/>
	<path d="M565.1,246.6v14.8l2.2-1.2c0.8,1.6,1.4,4.3,1.7,7.9v-20.9h4.9c2,0.2,2.3,0.8,1,2v12.6l1.5-1.2c0.8,1.6,1.6,4.2,2.5,7.6
		v-23.4h4.9c2,0.2,2.3,0.8,1,2V302h-5.9v-23.4l-2.7,1.7c-0.2-2.5-0.6-5-1.2-7.6v26.1H569v-20.2l-2.5,1.5c0-1-0.1-1.9-0.2-2.7
		c-0.2-2.1-0.6-3.9-1.2-5.4v3c0.2,4.8-0.2,9.4-1,13.8c-1,5.4-3,10-5.9,13.8l-3.9-5.4c0.8-1,1.5-2,2-3.2c2-3.3,3-9.4,3-18.5v-11.1
		c-0.5,8.2-1.3,14.6-2.5,19.2l-3-3v21.7h-5.4v-3h-14.5v3.4h-5.9v-43.3h7.6v-6.9h-9.4v-5.9H555v5.9h-8.4v6.9h7.1v18.2
		c1.1-6.1,1.7-12.1,1.7-18.2l3.7,1v-15.8h4.9C566.1,244.8,566.4,245.5,565.1,246.6z M540,265.3v5.7c0,1.1-0.1,2.2-0.2,3.2
		c-0.5,2.6-1.8,5-3.9,7.1l-2-2.5v4.2h14.5v-4.2h-3c-0.5,0-0.9-0.1-1.2-0.2c-1.3-0.5-2-1.5-2-3v-10.3H540z M534.3,276.2
		c0.8-1.3,1.2-3.1,1.2-5.4v-5.4h-1.7v11.6C534,276.7,534.2,276.5,534.3,276.2z M533.9,289v4.4h14.5V289H533.9z M540,259.4h2.2v-6.9
		H540V259.4z M546.7,265.3v7.4c0,0.5,0.1,0.8,0.2,1c0.2,0.2,0.6,0.2,1.2,0.2h0.2v-8.6H546.7z"/>
	<path d="M615.1,248.1c3,1.3,3.2,2.1,0.7,2.5c-0.8,3.1-1.7,6.5-2.7,10.1c1.5-0.2,3-0.2,4.4-0.2s2.5,0.1,3.2,0.2c1.5,0.3,2.7,1,3.7,2
		c1.3,1.3,2,3.2,2.2,5.7c0.2,2.5,0.2,4.9,0.2,7.4c0,3-0.2,6.2-0.7,9.8c-0.5,3.1-1.1,5.7-2,7.9c-1,2.6-2.6,4.3-4.9,4.9
		c-1.1,0.3-2.1,0.5-3,0.5c-3,0-6.4-2.3-10.3-6.9l4.2-5.4c2.3,2.8,4.3,4.2,5.9,4.2c1.3,0,2.2-1,2.7-3c0.8-3,1.3-6.9,1.5-11.8
		c0-4.4-0.3-7.1-1-7.9c-0.8-0.8-1.9-1.1-3.2-1c-1.5,0.2-3.1,0.3-4.9,0.5c-1,3.3-2.9,8.5-5.7,15.8c-2.8,7.1-5.4,12.6-7.9,16.5
		l-6.6-3.7c2.5-3.4,5-8.3,7.6-14.5c2.6-6.2,4.3-10.6,4.9-13c-3,0.3-6.3,0.7-10.1,1l-0.5-7.4c2.3,0,4.5-0.1,6.6-0.2
		c2.1-0.2,4.2-0.3,6.2-0.5c1.5-4.9,2.6-10.2,3.4-15.8L615.1,248.1z M633.5,256c7.7,6.7,12.6,15.5,14.8,26.3l-7.6,2.5
		c-1.6-9.5-5.9-17.8-12.8-24.9L633.5,256z M645.8,256.5l-4.2,3.9c-4.4-3.8-8.1-6.3-11.1-7.6l3.9-3.7
		C639.4,251.4,643.2,253.9,645.8,256.5z M644.8,246.4c1.8,1,3.7,2.5,5.7,4.4l-3.9,3.9c-3-3-6.6-5.5-10.8-7.6l3.4-3.7
		C641.2,244.4,643,245.4,644.8,246.4z"/>
	<path d="M676.6,300.8v-10.8h5.4h5.4v10.8H676.6z M678.1,284.8l-1.2-38.4h10.3l-1.2,38.4H682H678.1z"/>
</g>
<g>
	<path d="M111.1,105.1v5.2h8.4v6.4h-8.4v4.2h10.3v6.4h-3.7c-0.8,1.8-1.6,3.6-2.5,5.4h5.4v6.4h-9.6v3.9h9.6v6.4h-9.6v12.1h-6.9v-12.1
		H93.9V143h10.3v-3.9H93.9v-6.4h5.9l-2.2-5.4h-5.7v-6.4h12.3v-4.2h-8.9v-6.4h8.9v-7.1h5.9C112.1,103.3,112.4,104,111.1,105.1z
		 M106.9,132.7h1.7l2.2-5.4h-6.2L106.9,132.7z M146.5,118.7c0,0.7-0.1,1.3-0.2,2c-0.7,2.1-2.2,3.2-4.7,3.2h-7.1l-0.7-6.9h4.4
		c0.7,0,1.1-0.2,1.2-0.5c0.2-0.3,0.2-0.7,0.2-1.2v-2.7h-11.3v13h16l0.7-1l3.7,3c1,0.7,0.9,1.3-0.2,2c-0.5,2.8-1.1,5.7-2,8.6
		c-1.3,4.1-2.6,7.2-3.9,9.4c1.5,2,3.2,3.7,5.2,5.2c1.1,0.8,2.3,1.6,3.4,2.2L147,161c-3-1.6-5.7-4.1-8.1-7.4c-2.6,3.3-5.3,6-7.9,8.1
		l-2.7-4.9v4.4h-6.4v-55.1h24.6V118.7z M128.3,132v22.6c0.7-0.3,2.2-1.7,4.7-4.2c0.8-1,1.4-1.8,1.7-2.5c-2.8-5.2-4.7-10.6-5.7-16
		H128.3z M135.5,132c0.5,3.3,1.6,6.6,3.2,9.8c0.8-1.8,1.6-3.8,2.2-5.9c0.5-1.5,0.7-2.8,0.7-3.9H135.5z"/>
	<path d="M192.8,105.6v14.8l2.2-1.2c0.8,1.6,1.4,4.3,1.7,7.9v-20.9h4.9c2,0.2,2.3,0.8,1,2v12.6l1.5-1.2c0.8,1.6,1.6,4.2,2.5,7.6
		v-23.4h4.9c2,0.2,2.3,0.8,1,2V161h-5.9v-23.4l-2.7,1.7c-0.2-2.5-0.6-5-1.2-7.6v26.1h-5.9v-20.2l-2.5,1.5c0-1-0.1-1.9-0.2-2.7
		c-0.2-2.1-0.6-3.9-1.2-5.4v3c0.2,4.8-0.2,9.4-1,13.8c-1,5.4-3,10-5.9,13.8l-3.9-5.4c0.8-1,1.5-2,2-3.2c2-3.3,3-9.4,3-18.5v-11.1
		c-0.5,8.2-1.3,14.6-2.5,19.2l-3-3v21.7h-5.4v-3h-14.5v3.4h-5.9v-43.3h7.6v-6.9h-9.4v-5.9h28.8v5.9h-8.4v6.9h7.1v18.2
		c1.1-6.1,1.7-12.1,1.7-18.2l3.7,1v-15.8h4.9C193.8,103.8,194.1,104.5,192.8,105.6z M167.7,124.3v5.7c0,1.1-0.1,2.2-0.2,3.2
		c-0.5,2.6-1.8,5-3.9,7.1l-2-2.5v4.2h14.5v-4.2h-3c-0.5,0-0.9-0.1-1.2-0.2c-1.3-0.5-2-1.5-2-3v-10.3H167.7z M162,135.2
		c0.8-1.3,1.2-3.1,1.2-5.4v-5.4h-1.7v11.6C161.7,135.7,161.9,135.5,162,135.2z M161.6,148v4.4h14.5V148H161.6z M167.7,118.4h2.2
		v-6.9h-2.2V118.4z M174.4,124.3v7.4c0,0.5,0.1,0.8,0.2,1c0.2,0.2,0.6,0.2,1.2,0.2h0.2v-8.6H174.4z"/>
	<path d="M266.6,114.2c4.6,3.9,6.9,9.7,6.9,17.2c0,5.9-1.8,11.1-5.4,15.5c-3.6,4.4-8.5,8-14.8,10.6l-5.7-6.2
		c12.5-4.8,18.7-11.3,18.7-19.7c0-5.2-1.5-9.4-4.4-12.3c-3.1-3.1-7.8-4.7-14-4.7c2.6,0.7,3.9,1.3,3.9,2c-0.2,0.7-0.7,1.1-1.5,1.2
		c-0.5,3.8-1.7,9.4-3.7,17c-1.8,7.1-3.7,11.8-5.7,14.3c-2.5,3.1-5.1,4.7-7.9,4.7c-3,0-5.6-1.1-7.9-3.4c-3.4-3.4-5.2-8.7-5.2-15.8
		c0-7.1,2.6-13.2,7.9-18.5c5.2-5.2,11.8-7.9,19.7-7.9S261.9,110.3,266.6,114.2z M232.9,146c1.8,0,3.3-1.2,4.4-3.7
		c3-8,5-17.1,6.2-27.1c-5.6,0.8-9.7,3.4-12.3,7.6c-2.5,3.9-3.7,8-3.7,12.1c0,4.6,0.9,7.8,2.7,9.6C231.2,145.5,232.1,146,232.9,146z"
		/>
	<path d="M320.8,104.7v4.4h17v6.4h-17v2.5h14v17.5h-12.6c1,1,2,1.9,3.2,2.7c4.3,3.1,8.9,5.4,14,6.9l-3.7,6.6c-5.9-3-10.9-6.2-15-9.6
		v10.6h-6.9v-9.8c-0.7,0.8-1.6,1.6-2.7,2.5c-3.1,2.6-6.6,4.8-10.6,6.6c0.8,0.5,1.8,0.9,3,1.2c1.5,0.5,2.9,0.7,4.2,0.7h32l-1,6.4h-32
		c-0.8,0-1.6-0.1-2.5-0.2c-3.9-0.8-7.7-2.9-11.3-6.2c-2.6,2.3-5.3,4.7-7.9,7.1l-4.4-6.4c3-1.6,5.8-3.4,8.6-5.2v-15h-7.9V128h14.8
		v20.9c1.1,1,2.4,1.9,3.7,2.7l-3.2-5.9c1.5-0.5,3-1.1,4.4-2c4.6-2.3,8.4-5.1,11.6-8.4h-12.8v-17.5h14v-2.5h-15.5v-6.4h15.5v-6.4h5.9
		C321.8,102.8,322.1,103.5,320.8,104.7z M297.9,114.7l-5.2,4.9c-2.5-3.3-5.3-6.3-8.4-9.1l4.9-4.4
		C292.6,108.6,295.4,111.5,297.9,114.7z M306.8,124.3v4.7h7.1v-4.7H306.8z M320.8,124.3v4.7h7.1v-4.7H320.8z"/>
	<path d="M376.1,104.9c0.3,0.7-0.1,1.1-1.2,1.5c1,4.1,2,7.4,3,9.8c5.4-0.3,10.5-1.1,15.3-2.2l1.2,6.9c-3.1,0.5-7.6,1.1-13.5,1.7
		c1.8,5.3,6.7,10.3,14.8,15.3l-4.9,5.7c-3.4-2.3-6.9-3.6-10.3-3.9c-3.4-0.3-6.2-0.5-8.1-0.5c-3,0-5.3,0.3-7.1,1
		c-2.8,1-4.2,2.7-4.2,5.2c0,2,0.5,3.4,1.5,4.4c2.1,2.1,7.2,3.2,15.3,3.2h10.6l-1.5,7.1h-6.6c-1.3,0-3.8-0.2-7.4-0.5
		c-7.9-0.7-13-2.2-15.5-4.7s-3.7-5.5-3.7-9.1c0-3.4,1.2-6.4,3.7-8.9c2.8-2.8,6.8-4.2,12.1-4.2c2.8,0,6.3,0.2,10.6,0.7
		c-2.8-3.3-4.9-6.6-6.4-10.1c-7.1,0.7-13.9,0.9-20.4,0.7l-1.5-7.1c7.2,0.5,13.6,0.4,19.2-0.2c-1.3-3.9-2.5-8.2-3.7-12.8h6.6
		C375,103.9,375.8,104.2,376.1,104.9z"/>
	<path d="M422.2,110.1c-0.2,0.7-0.7,1-1.5,1c-3.1,13.3-3.5,28.5-1.2,45.5l-7.6,1c-2-16.6-1.3-33.2,2-50l6.2,1
		C421.4,108.9,422.2,109.4,422.2,110.1z M450.7,106.6c0.2,0.5-0.1,0.8-0.7,1c0.2,3.4,0.2,6.9,0.2,10.3c4.6-0.3,9.1-0.7,13.5-1v6.9
		c-3.6,0.2-8,0.4-13,0.7c0.2,5.7,0.2,11.5,0.2,17.2c1.5,0.5,3.5,1.4,6.2,2.7c3.3,1.6,6,3.4,8.1,5.2l-3.9,5.9
		c-3.6-2.6-7.1-4.8-10.6-6.4c0,2.3-1,4.4-3,6.4c-2.1,2.1-5.4,3.2-9.8,3.2c-3.6,0-6.3-0.9-8.1-2.7c-2.1-2.1-3.2-4.5-3.2-7.1
		c0-3,0.9-5.3,2.7-7.1c2-2,4.7-3,8.1-3c2.1,0,4.3,0.2,6.4,0.7c0-4.8-0.1-9.6-0.2-14.5c-5.4,0.3-11.4,0.7-18,1v-7.1
		c5.7,0,11.6-0.2,17.5-0.5c-0.2-4.3-0.4-8.5-0.7-12.8h6.4C449.9,105.6,450.5,106,450.7,106.6z M434.2,146.5c-0.7,0.7-1,1.4-1,2.2
		c0,2.3,1.7,3.4,5.2,3.4c3.6,0,5.4-1.9,5.4-5.7c-1.5-0.8-3.2-1.2-5.2-1.2C436.5,145.3,435,145.7,434.2,146.5z"/>
	<path d="M509.5,109.1c3.3-0.5,6.4-1.4,9.4-2.7c1.1-0.5,2-1,2.7-1.5l4.2,5.2c0.8,1.3,0.8,2.1,0,2.5c-0.3,0-0.7-0.1-1-0.2
		c-5.4,1.8-10.9,2.8-16.5,3v8.9h19.9v6.4h-6.9v30.8h-6.9v-30.8h-6.2v9.1c0.2,9-3,16.3-9.6,21.9l-4.7-4.9l1.5-1.5h-16.7v3.7h-6.9
		v-52.9h5.9c2,0.2,2.3,0.8,1,2v3.9l4.9-2.2c0.8,2.6,1.6,6,2.5,10.1v-14h4.9c2,0.2,2.3,0.8,1,2v16.7h8.4v5.9h-8.4v0.7
		c3,1.8,5.8,3.8,8.6,5.9l-3.4,5.7c-1.6-1.8-3.4-3.3-5.2-4.4v9.8h-5.9v-8.1c-1.1,2.1-2.9,4.2-5.2,6.2l-2.2-4.4v7.1h19.7v3.2
		c2-3.3,3-7.3,3-12.1v-32c0.8,0.3,1.8,0.7,3,1c1.1,0.3,2.1,0.5,3,0.5C508,109.3,508.7,109.2,509.5,109.1z M478.8,124.3h7.4v-3
		l-5.4,2.7c-0.5-2.3-1.1-5.1-2-8.4V124.3z M478.8,130.2v8.6c0.3-0.2,0.7-0.4,1-0.7c1.5-1.5,3-3.3,4.4-5.4c0.7-1,1.1-1.8,1.2-2.5
		H478.8z M494.5,114c0.5-2.1,0.7-3.9,0.7-5.2l4.7,2c1.1,0.5,1.6,1.1,1.2,1.7c-0.2,0.2-0.4,0.3-0.7,0.5c-0.5,3.6-1.3,7.3-2.5,11.1
		l-5.7-3.4C493.1,119.2,493.9,117,494.5,114z"/>
	<path d="M562.2,107.1c0.2,0.5-0.2,1-1,1.5v16.2c3.9,1,7.9,2.3,11.8,3.9c3.8,1.6,7.6,3.5,11.6,5.7l-3.7,5.9c-3.4-2-6.6-3.6-9.6-4.9
		c-3.3-1.5-6.6-2.6-10.1-3.4v26.3h-7.4v-51.9h6.4C561.4,106.4,562,106.6,562.2,107.1z"/>
	<path d="M611.9,121.6c1.8,3.4,3,6.2,3.4,8.1l-6.9,3.7c-0.8-3.8-3.4-9.2-7.6-16.2l6.6-3C608.5,115.6,609.9,118,611.9,121.6z
		 M651.3,114c0,0.7-0.4,1.1-1.2,1.2c-1.6,14.1-5.3,24-11.1,29.5c-5.4,5.4-13.2,10.4-23.4,15l-4.9-7.4c11.6-4.4,19.5-9.1,23.6-14
		c3.9-4.9,6.6-14,8.1-27.3l7.1,1.5C650.7,112.9,651.3,113.3,651.3,114z M630.6,125.6l-6.9,3.2c-2.1-5.7-4.8-11-7.9-15.8l6.6-2.7
		C625.6,114.7,628.3,119.8,630.6,125.6z"/>
</g>
</svg>
