<?xml version="1.0" encoding="utf-8"?>
<!-- Generator: Adobe Illustrator 25.2.1, SVG Export Plug-In . SVG Version: 6.00 Build 0)  -->
<svg version="1.1" id="レイヤー_1" xmlns="http://www.w3.org/2000/svg" xmlns:xlink="http://www.w3.org/1999/xlink" x="0px"
	 y="0px" viewBox="0 0 760 486.8" style="enable-background:new 0 0 760 486.8;" xml:space="preserve">
<style type="text/css">
	.st0{fill:#FFFFFF;}
	.st1{fill:url(#SVGID_1_);}
</style>
<g>
	<polygon points="54.2,29 63.4,28.7 65,20.9 661.8,0 760,213.8 634.6,414.9 628.9,414.9 623.8,423 275.6,427.4 222.8,478.6 
		222.5,476.5 212,486.8 204.9,428.3 127.1,429.2 0,304.4 	"/>
	<polygon class="st0" points="625.9,399.4 277.6,403.7 234.5,445.5 229.4,404.3 144.2,405.4 27.7,291 77.9,36 652,16 742.3,212.7 	
		"/>
</g>
<g>
	<path d="M101.2,120.9c0.2,0.5-0.2,1-1,1.5c0.2,6.6,0.5,12.9,1,18.9c5.9-2.1,12.1-3.9,18.5-5.2l2.2,7.1c-8.7,0.7-16.7,2.9-24.1,6.6
		c-6.4,3.3-9.6,6.5-9.6,9.6c0,2.3,0.7,3.9,2,4.7c1,0.7,3,1,5.9,1h25.3l-0.5,6.9H95.1c-4.8,0-8.3-1.1-10.6-3.4
		c-2.3-2.3-3.4-5.2-3.4-8.9c0-3.3,1.4-6.3,4.2-9.1c2.5-2.5,5.5-4.6,9.1-6.4c-0.5-2.5-0.8-6.2-1-11.1c-0.2-4.9-0.2-9.4-0.2-13.3h5.7
		C100.2,119.9,101,120.2,101.2,120.9z"/>
	<path d="M151.4,124.3c0.2,0.5-0.3,0.8-1.5,1c-2.6,15.4-3.1,30.8-1.5,46l-7.6,0.5c-1.6-18-1-34.9,2-50.4l6.2,1.5
		C150.4,123.2,151.3,123.7,151.4,124.3z M191.8,159.7v7.4h-18.2c-3.1,0-6-0.7-8.6-2.2c-2.8-1.5-5.4-3.4-7.9-5.9l4.4-5.2
		c2,2,3.9,3.4,5.7,4.4c1.8,1,4.3,1.5,7.4,1.5H191.8z M188.3,135.9c-10.2-0.3-20,0.2-29.5,1.5v-7.1c9.8-1.1,19.7-1.6,29.5-1.5V135.9z
		"/>
	<path d="M224.5,123.6c-0.8,3.1-1.7,6.5-2.7,10.1c1.5-0.2,3-0.2,4.4-0.2s2.5,0.1,3.2,0.2c1.5,0.3,2.7,1,3.7,2c1.3,1.3,2,3.2,2.2,5.7
		c0.2,2.5,0.2,4.9,0.2,7.4c0,3-0.2,6.2-0.7,9.8c-0.5,3.1-1.1,5.7-2,7.9c-1,2.6-2.6,4.3-4.9,4.9c-1.1,0.3-2.1,0.5-3,0.5
		c-3,0-6.4-2.3-10.3-6.9l4.2-5.4c2.3,2.8,4.3,4.2,5.9,4.2c1.3,0,2.2-1,2.7-3c0.8-3,1.3-6.9,1.5-11.8c0-4.4-0.3-7.1-1-7.9
		c-0.8-0.8-1.9-1.1-3.2-1c-1.5,0.2-3.1,0.3-4.9,0.5c-1,3.3-2.9,8.5-5.7,15.8c-2.8,7.1-5.4,12.6-7.9,16.5l-6.6-3.7
		c2.5-3.4,5-8.3,7.6-14.5c2.6-6.2,4.3-10.6,4.9-13c-3,0.3-6.3,0.7-10.1,1l-0.5-7.4c2.3,0,4.5-0.1,6.6-0.2c2.1-0.2,4.2-0.3,6.2-0.5
		c1.5-4.9,2.6-10.2,3.4-15.8l5.9,2.5C226.7,122.4,227,123.2,224.5,123.6z M257,155.3l-7.6,2.5c-1.6-9.5-5.9-17.8-12.8-24.9l5.7-3.9
		C249.9,135.7,254.9,144.5,257,155.3z"/>
	<path d="M302.3,124.6c-4.4,5.1-10.7,11.6-18.9,19.4c-1.3,1.5-1.3,2.9,0,4.2c10,8.5,17.3,15.3,21.9,20.2l-5.4,5.7
		c-6.6-7.2-14.5-15.2-23.9-23.9c-3-2.6-3-5.3,0-8.1c9.7-9.2,17.1-17.3,22.4-24.4l4.9,4.2C305.7,124,305.4,124.9,302.3,124.6z"/>
	<path d="M347.1,118.2c0,0.3-0.2,0.7-0.7,1.2v10.8l4.7,3.7l-1.5,1.2c-1.1,1.6-2.2,3-3.2,4.2v1.7c2.5-2.6,5.5-4.7,9.1-6.2
		c3.3-1.5,6.6-2.2,9.8-2.2c5.2,0,9.5,1.6,12.8,4.7c2.6,2.6,4.2,6.2,4.7,10.8c0.3,4.4-1.2,8.9-4.7,13.3c-3.3,4.3-8.6,7.7-16,10.3
		l-4.7-6.2c6.2-1.8,10.9-4.3,14-7.4c2.6-2.6,3.9-5.7,3.9-9.1c0-3-0.8-5.2-2.5-6.9c-1.8-1.8-4.4-2.7-7.9-2.7c-3.8,0-7.3,1.1-10.6,3.2
		c-2.8,1.8-5.5,3.8-8.1,5.9v27.1h-6.9v-20.4c-3.3,3.9-6.4,7.6-9.4,11.1l-4.7-5.4c2-2,4.6-4.9,7.9-8.9c3.1-4.1,5.2-7.4,6.2-9.8v-3.4
		c-4.3,1.3-8.1,2.2-11.6,2.7l-2.2-7.1c3.3-0.2,7.9-1,13.8-2.5v-14.5h5.9C346.3,117.4,346.9,117.7,347.1,118.2z"/>
	<path d="M413.5,123.6c-0.8,3.1-1.7,6.5-2.7,10.1c1.5-0.2,3-0.2,4.4-0.2s2.5,0.1,3.2,0.2c1.5,0.3,2.7,1,3.7,2c1.3,1.3,2,3.2,2.2,5.7
		c0.2,2.5,0.2,4.9,0.2,7.4c0,3-0.2,6.2-0.7,9.8c-0.5,3.1-1.1,5.7-2,7.9c-1,2.6-2.6,4.3-4.9,4.9c-1.1,0.3-2.1,0.5-3,0.5
		c-3,0-6.4-2.3-10.3-6.9l4.2-5.4c2.3,2.8,4.3,4.2,5.9,4.2c1.3,0,2.2-1,2.7-3c0.8-3,1.3-6.9,1.5-11.8c0-4.4-0.3-7.1-1-7.9
		c-0.8-0.8-1.9-1.1-3.2-1c-1.5,0.2-3.1,0.3-4.9,0.5c-1,3.3-2.9,8.5-5.7,15.8c-2.8,7.1-5.4,12.6-7.9,16.5l-6.6-3.7
		c2.5-3.4,5-8.3,7.6-14.5c2.6-6.2,4.3-10.6,4.9-13c-3,0.3-6.3,0.7-10.1,1l-0.5-7.4c2.3,0,4.5-0.1,6.6-0.2c2.1-0.2,4.2-0.3,6.2-0.5
		c1.5-4.9,2.6-10.2,3.4-15.8l5.9,2.5C415.7,122.4,416,123.2,413.5,123.6z M446,155.3l-7.6,2.5c-1.6-9.5-5.9-17.8-12.8-24.9l5.7-3.9
		C438.9,135.7,443.9,144.5,446,155.3z"/>
	<path d="M473.1,121.8c0.2,0.5-0.2,0.8-1,1c-0.7,3.4-1.1,7.1-1.2,11.1c-0.3,5.3-0.3,9.5,0,12.8c0.2,1.5,0.4,2.2,0.7,2.2
		c0.5,0,1.1-0.6,2-1.7l4.2-6.2l5.4,4.4l-3.9,5.2c-0.8,1-2.2,2.3-4.2,3.9c-1.8,1.5-3.4,2.2-4.9,2.2s-2.8-0.5-3.9-1.5
		c-1.1-1-1.9-2.5-2.2-4.4c-1.1-7.5-0.8-17.8,1-30.8l5.9,0.5C472.2,120.8,472.9,121.2,473.1,121.8z M497.7,119.6
		c-0.2,0.5-0.5,1-1,1.5c0.7,5.6,0.9,14.7,0.7,27.3c-0.2,5.6-1.6,10.3-4.4,14c-3,3.9-7.6,8-14,12.3l-5.4-5.4
		c5.1-2.8,8.9-5.4,11.3-7.9c3.3-3.3,5.1-8.5,5.4-15.8c0.3-8.4,0-17.3-1-26.8h6.2C496.8,118.9,497.5,119.1,497.7,119.6z"/>
	<path d="M554,120.4c0.2,0.7-0.2,1.1-1,1.5c-0.2,2.8-0.3,5.5-0.5,8.1c6.6-1,11.5,0.2,14.8,3.4c2.8,2.8,4.2,6.1,4.2,9.8
		c0,4.6-1.2,8.1-3.7,10.6s-5.5,3.7-9.1,3.7c-2.8,0-5.1-0.2-6.9-0.7c-3-0.8-5.4-1.9-7.4-3.2l3.2-6.6c1.6,1,3.4,1.9,5.4,2.7
		c1.8,0.7,3.4,1,4.9,1c4.4,0,6.6-2.1,6.6-6.4c0-2.5-0.7-4.3-2-5.7c-1.6-1.6-4.1-2.5-7.4-2.5c-2.6,0-5.7,0.7-9.4,2
		c-4.1,1.5-7.3,2.8-9.6,3.9c3.1,11.5,6.6,20.9,10.6,28.3L540,174c-4.3-9-7.7-18.9-10.3-29.5c-3.6,1.8-7.3,3.6-11.1,5.4l-3.7-7.1
		c4.6-1.5,8.9-3.2,13-5.2c-1-4.9-1.6-10.1-2-15.5h6.4c1.3,0,2.1,0.2,2.5,0.7c0.2,0.7-0.2,1.1-1.2,1.5c0.2,4.3,0.6,7.9,1.2,10.8
		c3.8-1.5,7.3-2.7,10.6-3.7c0.2-3.9,0.2-7.9,0.2-11.8h6.4C553.2,119.6,553.9,119.9,554,120.4z"/>
	<path d="M612.8,118.2c0.2,0.5-0.2,1-1,1.5v8.9l21.7-1.2v7.1l-21.7,0.7v7.6c1,2.8,1.5,6.3,1.5,10.6c0,6.6-2.1,12-6.4,16.2
		c-2.3,2.3-4.8,4.3-7.4,5.9l-6.4-4.4c3.4-2.5,6.4-4.8,8.9-6.9c2.3-2.5,3.5-4.6,3.7-6.4c-1.5,0.8-3.6,1.2-6.4,1.2
		c-2.5,0-4.6-0.9-6.4-2.7c-2-2-3-4.1-3-6.4c0-3.4,0.9-6.1,2.7-7.9c1.5-1.5,3.3-2.5,5.4-3.2c1.6-0.5,3.9-0.6,6.6-0.2v-3l-26.1,1.7
		l-1-7.1l26.8-1.2v-11.6h6.4C612,117.4,612.7,117.7,612.8,118.2z M597.8,145.2c-1,0.8-1.5,2-1.5,3.4c0,1.1,0.4,2.2,1.2,3.2
		c0.7,0.8,1.8,1.2,3.4,1.2c1.5,0,2.6-0.4,3.4-1.2c1-1,1.5-2,1.5-3.2c0-1.1-0.5-2.2-1.5-3.2c-0.8-0.8-2-1.2-3.4-1.2
		C599.7,144.2,598.6,144.6,597.8,145.2z"/>
	<path d="M654.9,126.8c0.2,0.5-0.2,1-1.2,1.5c-0.7,4.6-1.1,9.9-1.2,16c-0.2,5.6,0.2,10.4,1.2,14.5c0.5,2.3,1.4,3.5,2.7,3.7
		c1.3,0,2.7-1.4,4.2-4.2l3-6.2l6.2,4.7c-1.1,3-2.4,5.7-3.7,8.1c-2.5,4.1-5.5,6.1-9.1,5.9c-7.7-0.8-11.6-8.9-11.6-24.4
		c0-8.4,0.3-16,1-22.9l6.6,1.7C653.9,125.5,654.6,126,654.9,126.8z M689.4,158.5c-0.5-4.4-1.6-8.9-3.2-13.3c-1.8-4.6-4.7-9.3-8.6-14
		l5.4-3.9c4.3,4.3,7.6,9,10.1,14.3c2.5,5.4,3.9,10.4,4.4,15L689.4,158.5z"/>
</g>
<linearGradient id="SVGID_1_" gradientUnits="userSpaceOnUse" x1="459.8027" y1="218.519" x2="620.6147" y2="379.331" gradientTransform="matrix(1 0 0 -1 0 602)">
	<stop  offset="0" style="stop-color:#FFFCD1"/>
	<stop  offset="0.1118" style="stop-color:#FCF5C0"/>
	<stop  offset="0.3329" style="stop-color:#F4E493"/>
	<stop  offset="0.3708" style="stop-color:#F3E18B"/>
	<stop  offset="0.6854" style="stop-color:#F1C500"/>
	<stop  offset="1" style="stop-color:#CB9B0C"/>
</linearGradient>
<rect x="392.5" y="290" class="st1" width="295.4" height="26.2"/>
<g>
	<path d="M118.6,254.3H83.5v-6.4h35.2V254.3z M117.7,302.8h-6.9V301H92.1v2.7h-6.9v-29.3h32.5V302.8z M114,272H88.6v-15.8H114V272z
		 M92.1,280.4v4.2h6.2v-4.2H92.1z M92.1,290.5v4.7h6.2v-4.7H92.1z M95.5,262.2v3.9h11.6v-3.9H95.5z M104.6,280.4v4.2h6.2v-4.2H104.6
		z M104.6,290.5v4.7h6.2v-4.7H104.6z M128.2,254.8v36.9h-6.9v-38.9h5.9C129.2,253,129.6,253.6,128.2,254.8z M139.1,248.6v49.7
		c0,0.7-0.1,1.3-0.2,2c-0.7,2.1-2.2,3.2-4.7,3.2h-6.9l-0.7-6.9h4.2c0.7,0,1.1-0.2,1.2-0.5c0.2-0.3,0.2-0.7,0.2-1.2v-48.2h5.9
		C140.1,246.8,140.4,247.5,139.1,248.6z"/>
	<path d="M174.3,247.6v8.4h2.7v-10.3h5.9c2,0.2,2.3,0.8,1,2v8.4h3.2l-2-1.2c1.8-2,3.7-4.4,5.7-7.4l4.7,3.2c0.7,0.5,1,0.9,1,1.2
		c0,0.5-0.5,0.7-1.5,0.7l-2.7,3.4h10.8v5.9h-16l-1.2,2.7h11.8v5.9h-18.5v1.7h15.5v5.9h-15.5v2h24.1v5.9h-19.9c2.5,2,5.6,3.8,9.4,5.4
		c4.3,1.8,8,2.9,11.1,3.2l-2,6.9c-8.5-1.6-16.1-5.2-22.6-10.8v13h-6.9v-12.6c-1.3,1.1-2.6,2.2-3.9,3.2c-4.9,3.3-10.7,5.7-17.5,7.4
		l-2.7-6.6c4.3-1,8.4-2.3,12.3-3.9c3.8-1.6,6.6-3.4,8.6-5.2h-20.9v-5.9h24.1v-2h-16v-5.9h16v-1.7h-18.7v-5.9h12.1l-1.2-2.7h-16.2
		V256h11.1c-1-1.3-2.3-2.6-3.9-3.9l4.4-3.9c3,2,5.3,4.2,7.1,6.6l-2,1.2h2.5v-10.3h5.9C175.3,245.8,175.6,246.5,174.3,247.6z
		 M171.1,261.9l1.2,2.7h7.1l1-2.7H171.1z"/>
	<path d="M257.9,256.2c4.6,3.9,6.9,9.7,6.9,17.2c0,5.9-1.8,11.1-5.4,15.5c-3.6,4.4-8.5,8-14.8,10.6l-5.7-6.2
		c12.5-4.8,18.7-11.3,18.7-19.7c0-5.2-1.5-9.4-4.4-12.3c-3.1-3.1-7.8-4.7-14-4.7c2.6,0.7,3.9,1.3,3.9,2c-0.2,0.7-0.7,1.1-1.5,1.2
		c-0.5,3.8-1.7,9.4-3.7,17c-1.8,7.1-3.7,11.8-5.7,14.3c-2.5,3.1-5.1,4.7-7.9,4.7c-3,0-5.6-1.1-7.9-3.4c-3.4-3.4-5.2-8.7-5.2-15.8
		c0-7.1,2.6-13.2,7.9-18.5c5.2-5.2,11.8-7.9,19.7-7.9S253.2,252.3,257.9,256.2z M224.2,288c1.8,0,3.3-1.2,4.4-3.7
		c3-8,5-17.1,6.2-27.1c-5.6,0.8-9.7,3.4-12.3,7.6c-2.5,3.9-3.7,8-3.7,12.1c0,4.6,0.9,7.8,2.7,9.6C222.5,287.5,223.4,288,224.2,288z"
		/>
	<path d="M300.3,249.9l4.9,4.2c1.3,1.1,1,2.1-1,3c-1.8,4.4-3.6,8.9-5.4,13.3c4.9,0.7,9.8,1.8,14.8,3.4c0.2-5.1,0.2-9.8,0-14.3
		l6.4,1.2c1.1,0.3,1.8,0.7,2,1.2c0,0.5-0.4,0.8-1.2,1c0.2,3.1,0,7.5-0.5,13c3.4,1.3,7.1,3.1,11.1,5.4l-3.4,6.4
		c-3-1.8-5.9-3.4-8.9-4.7c-2,7.1-5.4,13-10.3,18l-5.9-4.7c4.6-3.9,7.9-9.2,9.8-15.8c-5.7-2.1-11.2-3.4-16.2-3.9
		c-0.8,2.5-2.3,5.7-4.4,9.6c-1.3,2.5-3,4.8-5.2,6.9c-1.6,1.6-3.7,2.5-6.2,2.5c-2,0-3.8-0.8-5.4-2.5c-1.8-1.8-2.7-4.2-2.7-7.1
		c0-3.9,1.6-7.5,4.7-10.6c3.8-3.8,8.8-5.7,15-5.7c1.1-2.5,2.6-6.4,4.4-11.8c-3.8,0.8-8.1,1.8-13,3l-2.2-7.1c2.6,0,5.8-0.3,9.6-1
		c2.6-0.5,4.8-1,6.4-1.5C298.3,251,299.3,250.5,300.3,249.9z M280.6,288.7c1,0.2,2.2-0.7,3.7-2.7c1.8-3,3.5-6.1,5.2-9.4
		c-6.4,0.7-9.9,3.8-10.6,9.4C278.7,287.5,279.3,288.4,280.6,288.7z"/>
	<path d="M369.4,248.6c0,0.7-0.4,1-1.2,1c-0.5,1.6-1.1,3.4-1.7,5.2L383,253l0.7,7.1l-19.9,1.5c-0.7,1.5-1.8,3.4-3.4,5.7
		c3-0.7,5.7-0.3,8.1,1c2.5,1.3,3.7,3.2,3.7,5.7c5.6-2.1,10.7-3.9,15.5-5.4l2.5,6.9c-6.6,1.8-12.4,3.5-17.5,5.2v11.1h-7.1v-8.4
		c-2.8,1.3-5.2,2.6-7.1,3.9c-2.1,1.5-3.3,3.1-3.4,4.9c-0.3,3,1.8,4.4,6.4,4.4h22.9v6.6h-22.6c-4.1,0-7.4-0.8-9.8-2.5
		c-2.8-1.8-4.1-4.4-3.9-7.9c0.2-3.4,1.7-6.4,4.7-8.9c3-2.6,7.2-5.1,12.8-7.4c0-2.5-1-3.7-3-3.7c-2-0.2-4.2,0.5-6.6,2
		c-3.6,2-6.8,4.3-9.6,6.9l-4.9-4.9c3-2,5.8-4.2,8.6-6.6c2.8-2.6,4.9-5.3,6.4-8.1l-13.3,1l-1-7.1l17.2-0.7c0.8-2.1,1.7-5.4,2.7-9.8
		l5.7,1.7C368.8,247.5,369.4,248,369.4,248.6z"/>
	<path d="M449.4,289.2v7.4h-30c-9.4,0-13.5-4.5-12.6-13.5c0.3-1.6,0.8-3.5,1.5-5.7l7.4,1.7c-1.1,2-1.7,3.9-1.7,5.9
		c0,2.8,2.1,4.2,6.4,4.2H449.4z M442.5,253c-0.5-0.3-0.8-0.5-1-0.5l3-3.7c4.6,2.6,8.1,5,10.6,7.1l-3.2,3.9c-2.6-2.3-5.1-4.2-7.4-5.7
		v6.4h-34v-7.4H443C442.8,253.1,442.7,253,442.5,253z M458.5,250.3l-3.2,4.2c-2-2-3.8-3.4-5.4-4.4c-1.8-1-3.6-2-5.4-3l3.2-3.7
		C451.6,245.3,455.2,247.6,458.5,250.3z"/>
	<path d="M475.5,244.9l5.2,4.2c1,1,1,1.6,0,2c-0.3,0-0.7,0-1.2,0l-7.1,8.4c0.8,0.7,1.7,1.4,2.7,2.2c3-3.3,5.3-6.5,7.1-9.6l4.4,4.2
		c1,0.8,1.1,1.5,0.5,2c-0.3,0.2-0.8,0.2-1.5,0.2c-3.6,4.4-7.3,8.9-11.1,13.3l5.7-0.5c-0.5-1.1-1.1-2.3-1.7-3.4l4.9-2.2
		c2.8,3.9,4.9,8.1,6.4,12.6l-6.2,2c-0.3-1.1-0.7-2.1-1-3l-3.2,0.5v25.8h-6.9v-25.3l-7.9,0.7c-0.3,0.8-0.7,1.1-1.2,1
		c-0.5-0.2-0.9-0.8-1.2-2l-1-5.9h4.9c1.8-1.8,3.4-3.6,4.7-5.4c-2.3-2.1-5.3-4.4-8.9-6.9l3.4-4.7l2.2,1.5
		C470.4,252.9,473,249,475.5,244.9z M471.8,281.6c0.2,0.2,0.2,0.4,0,0.7c-0.2,0.3-0.5,0.7-1,1c-0.2,5.1-1,10.3-2.5,15.8l-6.6-3.4
		c0.3-0.7,0.7-1.4,1-2.2c1-3.6,1.5-8,1.5-13l6.2,0.5C471.1,281,471.6,281.3,471.8,281.6z M487.5,283.1c1.5,3.6,2.5,7.1,3,10.3
		l-6.6,2.2c-1.3-6.1-2.6-10.6-3.9-13.5l6.2-2C486.6,281.1,487.1,282.1,487.5,283.1z M496.6,255h-7.4v-6.4h28.8l-1.7,20.4
		c0,0.8-0.2,1.6-0.5,2.2c-0.8,2-2.5,3-5.2,3h-5.4l-1-6.9h3.7c1,0.2,1.6-0.2,1.7-1.2l1-11.1h-7.1c0,10.2-4.3,17.3-13,21.4l-3.2-6.2
		C493.5,267.5,496.6,262.4,496.6,255z M517.6,276.4v25.8h-6.9v-2.7h-12.8v3.9H491v-27.1H517.6z M497.9,282.3v11.3h12.8v-11.3H497.9z
		"/>
	<path d="M559.2,247.9c0,0.5-0.5,0.9-1.5,1.2c1.6,3.4,4,6.6,7.1,9.4c5.4,4.8,11.3,7.6,17.7,8.6l-2.5,7.6c-1-0.2-2.1-0.5-3.4-1
		c-3.8-1.5-6.9-3-9.4-4.7c-0.3,0.5-0.7,0.7-1,0.7V303h-7.4v-35.9h5.4c-2.8-1.8-6.4-5.6-10.8-11.3c-3.1,3.9-7,7.9-11.6,11.8h5.4
		c1.1,0,1.8,0.3,2,1c0,0.2,0,0.3,0,0.5c-0.2,0.2-0.5,0.3-1,0.5v11.1c0,3.3-0.3,6.2-1,8.6c-1.5,6.6-6.5,11.6-15,15l-4.2-7.1
		c4.6-1.6,7.9-3.5,9.8-5.7c2.1-2.3,3.1-5.9,3-10.8v-12.3c-4.3,3.1-8.8,5.7-13.5,7.6L524,269c4.9-1.5,9.7-4,14.3-7.6
		c5.7-4.6,9.9-10,12.6-16.2l6.6,1.5C558.6,247,559.2,247.4,559.2,247.9z"/>
	<path d="M619.7,248.1v9.4h21.4v29h-6.9v-2h-14.5v18.9h-6.9v-18.9h-14v3.4h-6.9v-30.5h20.9v-11.3h5.9
		C620.7,246.3,621,247,619.7,248.1z M598.8,263.9v14.3h14v-14.3H598.8z M619.7,263.9v14.3h14.5v-14.3H619.7z"/>
	<path d="M673.6,301.8v-10.8h5.4h5.4v10.8H673.6z M675.1,285.8l-1.2-38.4h10.3l-1.2,38.4H679H675.1z"/>
</g>
</svg>
