<?xml version="1.0" encoding="utf-8"?>
<!-- Generator: Adobe Illustrator 25.2.1, SVG Export Plug-In . SVG Version: 6.00 Build 0)  -->
<svg version="1.1" id="レイヤー_1" xmlns="http://www.w3.org/2000/svg" xmlns:xlink="http://www.w3.org/1999/xlink" x="0px"
	 y="0px" viewBox="0 0 760 486.8" style="enable-background:new 0 0 760 486.8;" xml:space="preserve">
<style type="text/css">
	.st0{fill:#FFFFFF;}
	.st1{fill:url(#SVGID_1_);}
</style>
<g>
	<polygon points="54.2,29 63.4,28.7 65,20.9 661.8,0 760,213.8 634.6,414.9 628.9,414.9 623.8,423 275.6,427.4 222.8,478.6 
		222.5,476.5 212,486.8 204.9,428.3 127.1,429.2 0,304.4 	"/>
	<polygon class="st0" points="625.9,399.4 277.6,403.7 234.5,445.5 229.4,404.3 144.2,405.4 27.7,291 77.9,36 652,16 742.3,212.7 	
		"/>
</g>
<g>
	<path d="M99.6,105.6v9.1h8.6v6.4h-8.6v6.4c3.8,2.5,7,5.2,9.6,8.1l-3.4,6.4c-2.5-3.1-4.5-5.4-6.2-6.9v26.3h-6.9v-24.9
		c-2.1,3.8-4.5,7-7.1,9.6l-4.4-5.4c2.5-2.6,4.7-5.5,6.6-8.6c2.5-3.9,4-7.6,4.7-11.1h-9.8v-6.4h10.1v-11.1h5.9
		C100.6,103.8,100.9,104.5,99.6,105.6z M137,108.1V160h-6.9v-2.2h-13.8v3.7h-6.9v-53.4H137z M116.3,114.5v7.9h13.8v-7.9H116.3z
		 M116.3,128.8v7.9h13.8v-7.9H116.3z M116.3,143v8.4h13.8V143H116.3z"/>
	<path d="M167.5,119.7h-23.4v-6.4h23.4V119.7z M186.2,128.5c2,0.2,2.3,0.8,1,2v6.4c0.5,2.5,1.1,4.6,2,6.4c1.6,3.4,3.7,6,6.2,7.6
		c2.5,1.6,5,2.9,7.6,3.7l-1.7,6.9c-7.9-3-13.2-7.6-16-14c-1,2.6-2.7,5.1-5.2,7.4c-3.6,3.3-8,5.5-13,6.6l-1.5-5.2v4.2h-6.9v-2h-4.9
		v3.2h-6.9v-22.4h18.7v15c2.1-0.2,4-0.7,5.7-1.5c5.9-2.6,8.9-7.5,9.1-14.5v-9.8H186.2z M164.6,111h-17.2v-6.4h17.2V111z
		 M164.6,128.3h-17.2v-6.4h17.2V128.3z M164.6,136.9h-17.2v-6.4h17.2V136.9z M153.8,145.3v7.4h4.9v-7.4H153.8z M186.5,104.9
		c0,4.8-0.1,8.9-0.2,12.6c6.2,3.3,11.2,6.7,14.8,10.3l-4.2,5.4c-5.3-5.1-9.5-8.4-12.8-10.1c-0.7,1.3-1.6,2.6-2.7,3.9
		c-2.6,3-7.1,5.4-13.5,7.4l-2.2-6.6c1.3-0.2,2.6-0.5,3.9-1c3.1-1,5.7-2.7,7.6-5.2c1.6-2,2.5-4.6,2.5-7.9v-10.8h5.9
		C187.5,103.1,187.8,103.8,186.5,104.9z M177.1,136.6c-0.5,3.4-1.4,7.1-2.7,11.1l-6.4-1.5c2-4.6,3-8.8,3.2-12.6l4.7,1
		C178,135.2,178.4,135.8,177.1,136.6z M178.9,109.1c0.2,0.3,0.2,0.6,0,0.7c-0.2,0.2-0.4,0.2-0.7,0.2c-0.7,3.4-1.8,7.4-3.4,11.8
		l-6.4-2c0.5-0.8,0.9-1.7,1.2-2.7c1.3-3.9,2.1-7.4,2.5-10.3l5.4,1.2C178.2,108.3,178.7,108.6,178.9,109.1z M199.5,109.3
		c0.5,0.3,0.7,0.6,0.7,0.7c0,0.3-0.2,0.6-0.5,0.7c-0.2,0-0.4,0-0.7,0c-0.3,1.6-1.2,3.8-2.7,6.4c-0.8,1.5-1.6,2.5-2.2,3.2l-5.7-3.2
		c2.3-3.3,4-6.9,5.2-10.8l4.7,2.2C198.8,108.9,199.2,109.2,199.5,109.3z M194.1,132.5l5.4,2.5c0.5,0.2,0.8,0.4,1,0.7
		c0.3,0.3,0.4,0.7,0.2,1c-0.2,0.2-0.6,0.2-1.2,0.2c-0.5,2.6-1.8,5.7-3.9,9.1l-6.2-3C191.6,140.1,193.1,136.6,194.1,132.5z"/>
	<path d="M252.2,112.5c0,0.5-0.6,0.8-1.7,1c-5.4,18.7-16.1,33-32,42.8l-5.4-6.2c15.9-8.4,26.2-22.4,30.8-42.1l6.6,2.7
		C251.8,111.3,252.4,111.9,252.2,112.5z"/>
	<path d="M303.1,104.2c0.2,0.5-0.2,1-1,1.5v10.8h17l3.9,3c-0.7,11.8-3.3,20.8-7.9,26.8c-4.4,5.9-10.8,10.9-19.2,15l-5.2-6.4
		c15.6-5.4,23.6-15.9,24.1-31.5h-32l0.5,15h-7.4l-0.7-21.9h19.4v-13h6.4C302.3,103.4,303,103.7,303.1,104.2z"/>
	<path d="M356.5,122.6c0,0.7-0.5,1-1.5,1c-3.4,12.1-8.7,22.5-15.8,31l-6.2-4.9c2.5-2.5,5.2-6.6,8.4-12.6c3.1-6.2,5.4-12.5,6.9-18.7
		l5.9,2.5C355.8,121.6,356.5,122.1,356.5,122.6z M384.1,133.2c3.1,5.6,5.4,11.3,6.9,17.2l-7.9,2.2c-1-4.9-3-10.4-6.2-16.5
		c-3.3-6.2-6.6-11.6-10.1-16l5.4-3.7C376.7,121.6,380.7,127.1,384.1,133.2z"/>
	<path d="M429.1,104.2c0.2,0.5-0.2,1-1,1.5v10.8h17l3.9,3c-0.7,11.8-3.3,20.8-7.9,26.8c-4.4,5.9-10.8,10.9-19.2,15l-5.2-6.4
		c15.6-5.4,23.6-15.9,24.1-31.5h-32l0.5,15h-7.4l-0.7-21.9h19.4v-13h6.4C428.3,103.4,429,103.7,429.1,104.2z"/>
	<path d="M489.4,106.6c-0.2,0.3-0.7,0.6-1.5,0.7l-0.5,0.7h13.8l1-1.2l5.4,4.2c0.2,0.2,0.3,0.3,0.5,0.5c0.2,0.2,0.2,0.4,0.2,0.7
		c0,0.3-0.4,0.6-1.2,0.7c-4.6,5.4-8.7,9.6-12.3,12.6l3.9,1.2c0.5,0.2,0.9,0.3,1.2,0.5c0.8,0.5,1.1,1,0.7,1.5
		c-0.2,0.2-0.6,0.3-1.2,0.5c-0.5,0.5-0.9,1-1.2,1.5h10.6l0.7-1l5.2,3.9c1.3,1,1.1,1.6-0.5,2c-4.6,7.1-10.3,12.8-17.2,17.2
		c-7.5,4.9-17.6,8-30.3,9.1l-3.2-7.9c2.3,0,4.6-0.1,6.9-0.2c8-0.8,14.1-2.4,18.2-4.7c-2-2-4.1-3.7-6.4-5.2
		c-3.3,1.8-7.1,3.4-11.3,4.7l-3.7-6.9c2.5-0.5,4.9-1.1,7.4-2c7.5-2.8,13.5-6.9,17.7-12.3c-2.3,1.6-4.9,3.2-7.9,4.7
		c-5.9,3-11.9,5.1-18,6.4l-3.7-7.1c7.7-1.3,13.9-3.1,18.7-5.4c-1.6-1.6-3.5-3.1-5.7-4.4c-0.3,0.3-0.7,0.7-1.2,1
		c-2.3,1.5-4.9,2.7-7.9,3.7l-3.7-6.4c3.3-1,6.2-2.4,8.9-4.2c4.8-3,8.2-7.2,10.3-12.8l5.7,2.2C489.1,105.6,489.6,106.1,489.4,106.6z
		 M480.8,117.4c2.5,1.5,4.8,3.2,7.1,5.2c3.1-2.1,6.2-4.8,9.4-8.1h-14C482.5,115.5,481.6,116.5,480.8,117.4z M488.2,140.3l6.9,5.7
		c4.3-2.5,7.5-5.4,9.6-8.9h-12.6L488.2,140.3z"/>
	<path d="M542.1,105.1v10.1h4.4l-3.7-2.2c2.3-2.6,4.1-5.2,5.4-7.9l4.4,2.7c1.1,1,1.3,1.6,0.5,1.7c-0.2,0-0.4,0-0.7,0
		c-1.5,2-2.8,3.9-3.9,5.7h6.2v5.9h-12.3c4.1,1.3,7.5,3,10.3,5.2l-3.9,4.9c-2.5-2.5-4.7-4.2-6.6-5.2v3.7h-4.7l4.2,1.2
		c0.8,0.3,1.2,0.7,1.2,1c0,0.2-0.1,0.3-0.2,0.5c-0.2,0.2-0.4,0.2-0.7,0.2l-1.2,2.2h13l-3.4-3.2c1.6-2.1,3-4.4,4.2-6.9
		c2.3-5.6,3.9-12.5,4.9-20.7l6.4,1.5c0.7,0.2,1.1,0.4,1.2,0.7c0.3,0.5,0.2,0.9-0.2,1.2c-0.2,0.2-0.5,0.2-1,0.2
		c-0.3,2.1-0.9,4.8-1.7,7.9h16v6.4h-3.4c-1.1,8.5-3.3,16.3-6.4,23.4c1.6,2.3,3.9,4.4,6.6,6.4c1.8,1.3,3.3,2.2,4.4,2.7l-3.9,6.4
		c-4.4-3.3-8.2-6.6-11.3-10.1c-2,2.5-4.9,4.9-8.9,7.4c-3.1,2-6.1,3.4-8.9,4.2l-3.4-6.4c1.5-0.3,3-0.7,4.4-1.2c5.2-2,9.6-5,13-9.1
		c-2.1-4.6-3.6-9-4.4-13.3c-0.8,1.3-1.6,2.6-2.2,3.9l-1.5-1.2v5.7h-4.4c-0.8,3-1.7,5.3-2.7,6.9c1.3,0.7,3,1.5,4.9,2.5l-3.9,4.9
		c-1.5-0.8-3-1.6-4.4-2.2c-1,1.2-2.2,2.2-3.7,3.2c-4.3,2.5-9.1,4.1-14.5,4.9l-2-7.1c1,0,2-0.1,3-0.2c3.3-0.5,6.2-1.2,8.6-2.2
		c1.1-0.5,2-1,2.7-1.5l-3.4-1l-1.5,2l-5.4-2.7l4.2-7.4h-8.4v-5.9H534l2.2-5.2h-0.5v-3.7c-0.7,1.3-2.2,3-4.7,4.9
		c-1.8,1.5-3.6,2.7-5.4,3.7l-3.7-4.9c3.3-1.8,6.4-3.9,9.4-6.4c0.8-0.8,1.4-1.6,1.7-2.2h-9.4v-5.9h5.2c-1.1-2.5-2.5-4.5-4.2-6.2
		l5.2-3.7c2.1,2.1,3.9,4.5,5.4,7.1l-3.9,2.7h4.4v-12.1h5.4C543.1,103.3,543.4,104,542.1,105.1z M536.7,144c1.6,0.3,3.3,0.8,4.9,1.5
		c0.3-0.5,0.7-1.1,1-1.7c0.5-1,0.8-2,1-3h-5.2L536.7,144z M563,122.1c0,6.9,1.1,12.7,3.2,17.5c2-5.2,3-11.1,3.2-17.5H563z"/>
	<path d="M633.6,114.2c4.6,3.9,6.9,9.7,6.9,17.2c0,5.9-1.8,11.1-5.4,15.5c-3.6,4.4-8.5,8-14.8,10.6l-5.7-6.2
		c12.5-4.8,18.7-11.3,18.7-19.7c0-5.2-1.5-9.4-4.4-12.3c-3.1-3.1-7.8-4.7-14-4.7c2.6,0.7,3.9,1.3,3.9,2c-0.2,0.7-0.7,1.1-1.5,1.2
		c-0.5,3.8-1.7,9.4-3.7,17c-1.8,7.1-3.7,11.8-5.7,14.3c-2.5,3.1-5.1,4.7-7.9,4.7c-3,0-5.6-1.1-7.9-3.4c-3.4-3.4-5.2-8.7-5.2-15.8
		c0-7.1,2.6-13.2,7.9-18.5c5.2-5.2,11.8-7.9,19.7-7.9S628.9,110.3,633.6,114.2z M599.9,146c1.8,0,3.3-1.2,4.4-3.7
		c3-8,5-17.1,6.2-27.1c-5.6,0.8-9.7,3.4-12.3,7.6c-2.5,3.9-3.7,8-3.7,12.1c0,4.6,0.9,7.8,2.7,9.6C598.2,145.5,599.1,146,599.9,146z"
		/>
</g>
<linearGradient id="SVGID_1_" gradientUnits="userSpaceOnUse" x1="456.8027" y1="224.519" x2="617.6147" y2="385.331" gradientTransform="matrix(1 0 0 -1 0 602)">
	<stop  offset="0" style="stop-color:#FFFCD1"/>
	<stop  offset="0.1118" style="stop-color:#FCF5C0"/>
	<stop  offset="0.3329" style="stop-color:#F4E493"/>
	<stop  offset="0.3708" style="stop-color:#F3E18B"/>
	<stop  offset="0.6854" style="stop-color:#F1C500"/>
	<stop  offset="1" style="stop-color:#CB9B0C"/>
</linearGradient>
<rect x="389.5" y="284" class="st1" width="295.4" height="26.2"/>
<g>
	<path d="M90,279.5c2.8,3.3,6.5,5,11.1,5.2h33.2l-1,6.4H99.6c-1.1,0-2.3-0.2-3.4-0.5c-3.8-1.3-6.9-3.4-9.4-6.2
		c-2.5,2.8-5,5.1-7.6,6.9l-4.2-6.4c2-1.1,4.7-2.8,8.1-4.9v-14.3h-7.4v-6.9H90V279.5z M84.3,250.9c-2.3-3.6-4.8-6.9-7.6-9.8l5.7-3.9
		c2.8,2.6,5.3,5.7,7.6,9.4L84.3,250.9z M132.3,248.7h-6.9v-7.1h-10.1v2h8.4v5.9h-8.4v1.7h13.3v21.2h-13.3v1.5h17v5.9h-17v3.9h-6.9
		v-3.9h-16v-5.9h16v-1.5H95.1v-21.2h13.3v-1.7h-8.9v-5.9h8.9v-2H97.4v6.9h-6.9v-12.8h41.8V248.7z M102,257.1v2.2h6.4v-2.2H102z
		 M102,264.2v2.2h6.4v-2.2H102z M115.3,257.1v2.2h6.4v-2.2H115.3z M115.3,264.2v2.2h6.4v-2.2H115.3z"/>
	<path d="M187.7,237.4c0.5,0.5,0.6,1,0.2,1.5c-0.2,0.2-0.6,0.3-1.2,0.5c-1.1,2.1-2.2,4-3.2,5.7h11.3v13.5h-6.9v-7.1h-41.3v7.1h-6.9
		V245h12.6c-0.2-0.3-0.3-0.7-0.5-1c-0.7-1.1-2-2.6-3.9-4.4l4.9-3.9c3,2.5,5,4.8,6.2,7.1l-3.2,2.2H167c-1.1-2.1-2.9-4.3-5.2-6.6
		l4.9-3.7c0.5,0.3,1,0.7,1.5,1.2c2,1.8,3.6,3.8,4.9,5.9l-4.9,3.2h8.1c1.8-3.1,3.4-6.7,4.9-10.8l5.2,2.5
		C186.9,236.8,187.3,237,187.7,237.4z M184,269.9h-6.9v-1h-6.4l-0.7,3.4h20.2V292h-6.9v-1.2h-31.7v1.7h-6.9v-20.2h18.5l0.7-3.4h-6.2
		v1.2h-6.9v-16.7H184V269.9z M151.5,278.7v5.7h31.7v-5.7H151.5z M157.7,259.3v3.2h19.4v-3.2H157.7z"/>
	<path d="M234.2,237.6c1.1,2,2.7,3.9,4.7,5.7c5.2,4.9,12.1,8.3,20.7,10.1l-3.4,7.4c-3.9-0.8-7.5-2.3-10.6-4.4v4.7h-29.8v-3.9
		c-2,1.5-5.9,3.4-11.8,5.7l-3.7-7.1c5.2-1.3,10-3.4,14.3-6.4c5.6-3.8,9.6-8.7,12.1-14.8l6.6,0.7C235.8,236,236.2,236.8,234.2,237.6z
		 M256.1,272.1h-16.5c6.6,4.9,12.1,10.2,16.7,15.8l-6.2,4.2c-1.5-1.8-3-3.5-4.7-5.2l-34.9,3.9c-0.2,0.7-0.5,1.1-1,1.5
		c-0.3,0.2-0.7,0.2-1.2,0c-0.7-0.2-1.1-0.9-1.5-2.2l-2-6.9l10.8-0.5c2.1-3.3,4-6.8,5.7-10.6h-16.7v-7.4h51.4V272.1z M220.2,253.6
		h20.7c-4.1-3.1-7.6-6.7-10.6-10.8C227.6,246.4,224.3,250,220.2,253.6z M229.5,272.1c-1.8,3.4-3.8,6.8-5.9,10.1l16-1.2
		c-1.5-1.5-3.4-3.2-5.9-5.2l5.2-3.7H229.5z"/>
	<path d="M281.2,236.6v8.6h4.7l1-1l4.2,4.2c1.3,1.3,1.1,1.9-0.5,1.7c-1.8,3.9-4.4,7.8-7.9,11.6c3.4,1.6,6.9,3.5,10.3,5.7l-3.7,6.4
		c-2.8-2.3-5.2-3.9-7.1-4.9v23.4h-6.9v-22.9c-2.5,2-5.2,3.9-8.1,5.9l-3.4-6.9c2.8-1.3,5.4-3,7.9-4.9c5.2-4.3,8.7-8.2,10.3-11.8h-16
		v-6.4h8.4v-10.6h5.9C282.2,234.8,282.5,235.5,281.2,236.6z M310,237.4c-0.2,0.3-0.5,0.7-1,1v12.8h10.1v7.4H309v23.6h13v7.4h-34.5
		v-7.4h13.5v-23.6h-9.6v-7.4h9.6v-15h6.9C309.7,236.1,310.3,236.6,310,237.4z"/>
	<path d="M381.6,248.4c-4.9-0.5-9-0.2-12.3,0.7c-5.3,1.5-9.1,3.4-11.6,5.9c-3.3,3.3-4.9,7.2-4.9,11.8c0,3.9,1.2,7.1,3.7,9.6
		c3.3,3.3,9.8,5.1,19.4,5.4l-2,7.4c-2.5-0.2-5-0.5-7.6-1c-2.6-0.5-5.3-1.2-8.1-2.2c-4.4-1.8-7.5-4.3-9.4-7.4c-2-3.3-3-6.6-3-9.8
		c-0.2-3.4,0.2-6.5,1.2-9.1c0.8-2.8,2.8-5.6,5.9-8.4c-6.1,0.8-13.2,1.9-21.4,3.2l-1.5-7.9c17.4-1.1,34.2-3.1,50.4-5.9L381.6,248.4z
		 M378.6,263.7l-3.4,3.9c-3.1-2.6-6.6-5-10.3-7.1l3.4-3.7C373.1,259.6,376.5,261.9,378.6,263.7z M383.6,257.8l-3.4,3.9
		c-3.4-2.5-6.9-4.8-10.3-7.1l3.2-3.7C376.9,253.2,380.4,255.5,383.6,257.8z"/>
	<path d="M422.7,235.9v5.2h23.4v13.5h-6.9v-7.1h-23.1l4.2,1.5c0.7,0.2,1.1,0.4,1.5,0.7c0.7,0.5,1,0.9,1,1.2c0,0.5-0.5,0.7-1.5,0.7
		l-3,6.2h28.3v6.4h-11.8c-0.3,1.5-0.7,2.9-1.2,4.2c-1.5,3.9-3,6.8-4.4,8.6c6.1,3.1,11.1,6.3,15,9.6l-5.2,5.7
		c-2.3-2-7.2-5.2-14.8-9.6c-6.4,6.1-16.3,9.4-29.8,9.8l-1-7.6c3.1-0.2,6.1-0.4,8.9-0.7c6.7-1.1,11.8-2.8,15.3-4.9
		c-3.6-1.6-6.6-2.8-9.1-3.4c-1,1-1.8,2-2.5,3l-5.7-3.7c3.3-3.9,5.7-7.5,7.4-10.8h-15.3v-6.4h18.5c1.8-4.1,3.2-7.5,4.2-10.3h-15.3
		v7.1h-6.9v-13.5h22.9v-7.1h5.9C423.7,234.1,424,234.8,422.7,235.9z M423.4,272.8c1.6-2.5,3-5.3,3.9-8.6h-12.3
		c-1.3,2.5-2.5,4.6-3.7,6.4c3.6,1,7.2,2.2,10.8,3.7C422.5,274,422.9,273.5,423.4,272.8z"/>
	<path d="M466.5,255.1c0.7,0.5,0.7,1,0.2,1.5c-0.3,0.3-0.8,0.5-1.5,0.5c-0.8,8.4-2.2,16.7-4.2,24.9l-7.1-2.5
		c1.8-8.5,3.2-17.5,4.2-26.8l6.6,1.7C465.6,254.5,466.2,254.8,466.5,255.1z M478.1,248c-0.2,0.3-0.5,0.7-1,1v32.5
		c0,0.5,0.1,0.9,0.2,1.2c0.2,0.3,0.5,0.5,1,0.5h11.1c0.7,0,1.1-0.1,1.5-0.2c0.7-0.2,1.2-1.2,1.7-3.2l1.7-7.1l7.9,1.7l-2.5,9.8
		c-0.5,2.5-1.4,4.2-2.7,5.2c-1.3,0.8-3.3,1.2-5.9,1.2h-17.5c-1.3,0-2.5-0.6-3.4-1.7c-0.7-0.8-1-1.8-1-3v-39.1h6.9
		C477.7,246.7,478.4,247.1,478.1,248z M480.3,237.1c3.9,2.5,7.5,5.3,10.6,8.6l-4.9,6.2c-4.4-4.3-9-8-13.8-11.3l4.2-5.4
		C477.7,235.7,479,236.3,480.3,237.1z M504.4,258.3c3.3,5.4,5.6,10.6,6.9,15.5l-7.6,3.9c-0.7-3.4-1.9-7.3-3.7-11.6
		c-2-4.3-4-7.8-6.2-10.6l5.4-4.4C501.2,253.5,502.9,255.8,504.4,258.3z"/>
	<path d="M536.1,236.6c0,0.3-0.1,0.6-0.2,0.7c-0.2,0.2-0.5,0.2-1,0.2c-1.1,4.8-2.5,8.9-3.9,12.6c1.3,0.7,1.3,1.3,0,2v29.5
		c7.4-3.1,13.1-7.5,17.2-13.3H532V262h17v-5.7h-5.4v1.7h-6.9v-21.9h31v21.7h-6.9v-1.5h-4.9v5.7h18v6.4h-16.7
		c4.4,6.4,10.6,10.6,18.5,12.6l-2.7,7.6c-1.8-0.7-3.5-1.4-5.2-2.2c-5.1-2.8-9-6.2-11.8-10.1v16h-6.9v-15c-4.1,4.8-9.1,8.7-15,11.8
		l-3-6.6v9.8h-6.9v-29.5c-1.5,2-3,3.6-4.4,4.9l-4.2-6.2c1.8-1.8,3.4-3.8,4.9-5.9c4.3-6.2,6.9-13.5,7.9-21.9l6.2,1.7
		C535.4,235.7,536,236.1,536.1,236.6z M543.5,242.5v7.4h17.2v-7.4H543.5z"/>
	<path d="M603.3,250.4h-23.6V244h23.6V250.4z M601.9,291.5H595v-2h-6.4v3h-6.9v-22.1h20.2V291.5z M600.1,241.6h-17v-6.4h17V241.6z
		 M600.1,259.3h-17v-6.4h17V259.3z M600.1,267.9h-17v-6.4h17V267.9z M588.6,276.3v6.9h6.4v-6.9H588.6z M635.6,244.8h-10.3v15.8h9.8
		v6.4h-9.8v17h12.3v6.4h-34.7v-6.4h4.4v-30.8h5.9c2,0.2,2.3,0.8,1,2v28.8h4.2v-39.1h-13.8v-6.4h31V244.8z"/>
	<path d="M665.6,290.8v-10.8h5.4h5.4v10.8H665.6z M667.1,274.8l-1.2-38.4h10.3l-1.2,38.4H671H667.1z"/>
</g>
</svg>
