<?xml version="1.0" encoding="utf-8"?>
<!-- Generator: Adobe Illustrator 25.2.1, SVG Export Plug-In . SVG Version: 6.00 Build 0)  -->
<svg version="1.1" id="レイヤー_1" xmlns="http://www.w3.org/2000/svg" xmlns:xlink="http://www.w3.org/1999/xlink" x="0px"
	 y="0px" viewBox="0 0 760 486.8" style="enable-background:new 0 0 760 486.8;" xml:space="preserve">
<style type="text/css">
	.st0{fill:#FFFFFF;}
	.st1{fill:url(#SVGID_1_);}
</style>
<g>
	<polygon points="54.2,29 63.4,28.7 65,20.9 661.8,0 760,213.8 634.6,414.9 628.9,414.9 623.8,423 275.6,427.4 222.8,478.6 
		222.5,476.5 212,486.8 204.9,428.3 127.1,429.2 0,304.4 	"/>
	<polygon class="st0" points="625.9,399.4 277.6,403.7 234.5,445.5 229.4,404.3 144.2,405.4 27.7,291 77.9,36 652,16 742.3,212.7 	
		"/>
</g>
<g>
	<path d="M109.6,105.1v9.8h3.9l1.2-1.5l3.9,3.9c0.8,0.7,0.7,1.2-0.5,1.7c-2.5,4.6-5.2,8.9-8.1,12.8c0.7,0.5,1.3,1,2,1.5
		c1.6-1.5,3.3-3.5,4.9-6.2l4.7,4.2c0.3,0.3,0.6,0.7,0.7,1c0,0.3-0.1,0.6-0.2,0.7c-0.3,0.2-0.8,0.2-1.5,0.2c-1.1,1-2.4,2.1-3.7,3.4
		c1.5,1.3,2.9,2.6,4.2,3.9l-4.4,5.9c-2.1-2.6-4.5-5.1-7.1-7.4v22.4h-6.9v-21.7c-2,2-4.4,3.9-7.4,5.7l-3.4-6.6c1.6-1,3.2-2,4.7-3.2
		c5.9-4.8,10.2-9.6,12.8-14.5H94.1V115h8.6v-11.8h5.9C110.6,103.3,110.9,104,109.6,105.1z M147,155.1c-0.2,2.1-1.1,3.9-3,5.2
		c-1,0.8-2.1,1.2-3.4,1.2h-9.4l-1-6.9h7.9c0.8,0,1.3-0.2,1.5-0.5c0.2-0.3,0.3-0.9,0.5-1.7c0.8-9.7,1.1-21.2,1-34.5h-7.9v14
		c0,4.4-1,8.8-3,13c-3.3,7.1-8.2,12.6-14.8,16.7l-4.4-5.9c3.1-2,5.7-4,7.9-6.2c4.9-4.6,7.4-10.5,7.4-17.7v-14h-6.6V111H148
		C148,130.4,147.7,145.1,147,155.1z"/>
	<path d="M168.2,124.1c0.7,0.5,0.7,1,0.2,1.5c-0.3,0.3-0.8,0.5-1.5,0.5c-0.8,8.4-2.2,16.7-4.2,24.9l-7.1-2.5
		c1.8-8.5,3.2-17.5,4.2-26.8l6.6,1.7C167.3,123.5,167.9,123.8,168.2,124.1z M179.8,117c-0.2,0.3-0.5,0.7-1,1v32.5
		c0,0.5,0.1,0.9,0.2,1.2c0.2,0.3,0.5,0.5,1,0.5h11.1c0.7,0,1.1-0.1,1.5-0.2c0.7-0.2,1.2-1.2,1.7-3.2l1.7-7.1l7.9,1.7l-2.5,9.8
		c-0.5,2.5-1.4,4.2-2.7,5.2c-1.3,0.8-3.3,1.2-5.9,1.2h-17.5c-1.3,0-2.5-0.6-3.4-1.7c-0.7-0.8-1-1.8-1-3v-39.1h6.9
		C179.4,115.7,180.1,116.1,179.8,117z M182,106.1c3.9,2.5,7.5,5.3,10.6,8.6l-4.9,6.2c-4.4-4.3-9-8-13.8-11.3l4.2-5.4
		C179.4,104.7,180.7,105.3,182,106.1z M206.1,127.3c3.3,5.4,5.6,10.6,6.9,15.5l-7.6,3.9c-0.7-3.4-1.9-7.3-3.7-11.6
		c-2-4.3-4-7.8-6.2-10.6l5.4-4.4C202.9,122.5,204.6,124.8,206.1,127.3z"/>
	<path d="M247.9,105.1v3.9h11.8v2.5c1.5-2,3-3.9,4.7-5.7l4.7,3.2c1.1,0.8,1.6,1.5,1.2,2c-0.3,0.3-1.1,0.5-2.2,0.5
		c-2.8,3.1-5.5,5.9-8.1,8.4h15.3v6.4h-21.7c-1.8,1.3-3.6,2.6-5.4,3.9h18.7v30.3H260v-2.2h-20.2v3h-6.9v-21.9
		c-3.8,2.3-8.3,4.3-13.5,5.9l-2.5-6.9c5.9-1.5,11.2-3.4,16-5.7v-2.5h4.9c2.1-1.3,4.2-2.6,6.2-3.9h-24.4v-6.4H241v-4.4h-14.3v-6.4
		H241v-5.9h5.9C248.9,103.3,249.2,104,247.9,105.1z M239.8,136.2v4.7H260v-4.7H239.8z M239.8,146.7v5.7H260v-5.7H239.8z
		 M247.9,115.5v4.4h3.4l4.9-4.4H247.9z"/>
	<path d="M296.4,110.3c0.2,0.5-0.3,0.8-1.5,1c-2.6,15.4-3.1,30.8-1.5,46l-7.6,0.5c-1.6-18-1-34.9,2-50.4l6.2,1.5
		C295.4,109.2,296.2,109.7,296.4,110.3z M336.8,145.7v7.4h-18.2c-3.1,0-6-0.7-8.6-2.2c-2.8-1.5-5.4-3.4-7.9-5.9l4.4-5.2
		c2,2,3.9,3.4,5.7,4.4c1.8,1,4.3,1.5,7.4,1.5H336.8z M333.3,121.9c-10.2-0.3-20,0.2-29.5,1.5v-7.1c9.8-1.1,19.7-1.6,29.5-1.5V121.9z
		"/>
	<path d="M353.3,128.5c5.6-1,9.8-2.5,12.8-4.7h-11.3v-5.9H370c0.2-1,0.3-2,0.5-3H353v5.7h-6.9v-12.1h23.4v-5.2h6.4
		c1.6,0,2.3,0.4,2,1.2c-0.2,0.3-0.5,0.7-1,1v3H400v11.6h-6.9V115h-16c1.1,0.5,1.5,1,1,1.5c-0.2,0.2-0.4,0.2-0.7,0.2
		c-0.2,0.3-0.2,0.7-0.2,1.2h14.5v5.9h-10.3c3.1,2.3,8,4,14.5,5.2l-2.5,4.7h8.4v6.4h-9.6v16.7c0,0.7-0.1,1.3-0.2,2
		c-0.7,2.1-2.2,3.2-4.7,3.2h-6.2l-0.7-7.4h3.4c0.7,0,1.1-0.2,1.2-0.5c0.2-0.3,0.2-0.7,0.2-1.2v-12.8h-41.3v-6.4h11.6L353.3,128.5z
		 M379.3,157.1h-18.5v1.5H354v-16.5h25.3V157.1z M360.9,147.5v3.7h11.6v-3.7H360.9z M373.9,125.1c-0.8,1.2-2.1,2.4-3.7,3.7
		c-2.6,2.1-5.4,3.8-8.4,4.9H386C381.7,131.9,377.7,129,373.9,125.1z"/>
	<path d="M429.1,107.8c0.2,0.5-0.2,0.8-1,1c-0.7,3.4-1.1,7.1-1.2,11.1c-0.3,5.3-0.3,9.5,0,12.8c0.2,1.5,0.4,2.2,0.7,2.2
		c0.5,0,1.1-0.6,2-1.7l4.2-6.2l5.4,4.4l-3.9,5.2c-0.8,1-2.2,2.3-4.2,3.9c-1.8,1.5-3.4,2.2-4.9,2.2s-2.8-0.5-3.9-1.5
		c-1.1-1-1.9-2.5-2.2-4.4c-1.1-7.5-0.8-17.8,1-30.8l5.9,0.5C428.2,106.8,428.9,107.2,429.1,107.8z M453.7,105.6
		c-0.2,0.5-0.5,1-1,1.5c0.7,5.6,0.9,14.7,0.7,27.3c-0.2,5.6-1.6,10.3-4.4,14c-3,3.9-7.6,8-14,12.3l-5.4-5.4
		c5.1-2.8,8.9-5.4,11.3-7.9c3.3-3.3,5.1-8.5,5.4-15.8c0.3-8.4,0-17.3-1-26.8h6.2C452.8,104.9,453.5,105.1,453.7,105.6z"/>
	<path d="M478.3,158.8c0.5,1,0.4,1.6-0.2,2c-0.5,0.3-1.1,0.2-2-0.5l-5.2-4.4c3.8-5.7,6.9-12.1,9.4-18.9l5.7,3.9
		C483.4,147.7,480.9,153.7,478.3,158.8z M482.2,135.4c-3.3-3-6.6-5.7-10.1-8.1l3.9-5.9c4.1,2.5,7.5,4.9,10.3,7.4L482.2,135.4z
		 M488.1,113.3l-4.2,6.4c-3-3-6.2-5.7-9.8-8.1l3.9-5.7C481.5,107.7,484.8,110.1,488.1,113.3z M522.6,109.8c0.5,0.8,0.6,1.5,0.2,2
		c-0.3,0.5-1.1,0.5-2.5,0c-4.1,0.7-8.1,1.2-12.1,1.7c-0.5,2.3-1,4.3-1.5,6.2H527v6.4h-11.6c3.1,5.4,7.5,9.2,13.3,11.3l-3.7,6.4
		c-7.4-4.3-12.9-10.2-16.5-17.7h-3.7c-1,3-2.6,5.8-4.9,8.6h5.4c1,0,1.6,0.2,1.7,0.7c0.2,0.3,0.2,0.7,0,1c-0.2,0.3-0.5,0.5-1,0.5v6.2
		l4.4-2.5c3.3,4.9,5.7,9.8,7.4,14.5l-7.1,2.7c-1.3-5.1-2.9-9.2-4.7-12.3v9.8c0,0.7-0.1,1.3-0.2,2c-0.7,2.1-2.2,3.2-4.7,3.2h-5.7
		l-0.7-6.9h3c0.7,0,1.1-0.2,1.2-0.5c0.2-0.3,0.2-0.7,0.2-1.2v-16.2c-1.6,2-3.5,3.9-5.7,5.7l4.2,2c-0.5,2.3-1.6,5.2-3.2,8.6
		c-1.1,2.6-2.4,4.7-3.7,6.2l-5.7-4.4c0.5-0.5,1-1.1,1.5-1.7c2-2.8,3.6-5.8,4.9-9.1c-1,1-2.1,1.8-3.2,2.5l-3-6.6
		c6.2-3.6,10.4-7.8,12.6-12.6h-12.3v-6.4h14.5c0.3-1.6,0.7-3.5,1.2-5.7c-3.9,0.3-8,0.6-12.3,0.7l-1-6.6c12.8,0,23.2-1.2,31.3-3.7
		L522.6,109.8z M517.2,139.8c4.4,5.1,7.9,9.8,10.3,14.3l-6.6,3.4c-2.5-5.2-5.3-10.1-8.4-14.5L517.2,139.8z"/>
	<path d="M577,124.3c2.5,2.5,3.7,5.7,3.7,9.6c0,3.8-0.5,7.2-1.5,10.3c-1.1,3.6-3.3,6.6-6.4,8.9c-2.8,2-5.3,3.5-7.6,4.7
		c-2.8,1.5-5.6,2.5-8.4,3.2l-4.9-6.9c8.5-2.1,14.2-4.6,17-7.4c3-3,4.4-6.9,4.4-11.8c0-2.5-0.7-4.3-2-5.7c-1.1-1.1-2.6-1.7-4.4-1.7
		c-2.6,0-5.7,0.5-9.4,1.5c-5.3,1.5-9.3,2.7-12.1,3.7l-3.2-8.4c4.4-0.3,8.9-1,13.3-2c5.1-1.1,8.9-1.7,11.6-1.7
		C571.2,120.6,574.5,121.9,577,124.3z M575,115.5c-4.1-0.2-8.2-0.7-12.3-1.5c-4.8-1-9.1-2.2-13-3.7l1.7-6.6c3.3,1,7.1,2.1,11.6,3.2
		c4.3,1,8.9,1.5,13.8,1.5L575,115.5z"/>
</g>
<linearGradient id="SVGID_1_" gradientUnits="userSpaceOnUse" x1="117.4735" y1="215.1571" x2="283.2702" y2="380.9537" gradientTransform="matrix(1 0 0 -1 0 602)">
	<stop  offset="0" style="stop-color:#FFFCD1"/>
	<stop  offset="0.1118" style="stop-color:#FCF5C0"/>
	<stop  offset="0.3329" style="stop-color:#F4E493"/>
	<stop  offset="0.3708" style="stop-color:#F3E18B"/>
	<stop  offset="0.6854" style="stop-color:#F1C500"/>
	<stop  offset="1" style="stop-color:#CB9B0C"/>
</linearGradient>
<rect x="47.7" y="290.8" class="st1" width="305.3" height="26.2"/>
<g>
	<path d="M82.4,246.9v5.2h23.4v13.5h-6.9v-7.1H75.8l4.2,1.5c0.7,0.2,1.1,0.4,1.5,0.7c0.7,0.5,1,0.9,1,1.2c0,0.5-0.5,0.7-1.5,0.7
		l-3,6.2h28.3v6.4H94.5c-0.3,1.5-0.7,2.9-1.2,4.2c-1.5,3.9-3,6.8-4.4,8.6c6.1,3.1,11.1,6.3,15,9.6l-5.2,5.7c-2.3-2-7.2-5.2-14.8-9.6
		c-6.4,6.1-16.3,9.4-29.8,9.8l-1-7.6c3.1-0.2,6.1-0.4,8.9-0.7c6.7-1.1,11.8-2.8,15.3-4.9c-3.6-1.6-6.6-2.8-9.1-3.4c-1,1-1.8,2-2.5,3
		L60,286c3.3-3.9,5.7-7.5,7.4-10.8H52.1v-6.4h18.5c1.8-4.1,3.2-7.5,4.2-10.3H59.5v7.1h-6.9V252h22.9v-7.1h5.9
		C83.4,245.1,83.7,245.7,82.4,246.9z M83.1,283.8c1.6-2.5,3-5.3,3.9-8.6H74.8c-1.3,2.5-2.5,4.6-3.7,6.4c3.6,1,7.2,2.2,10.8,3.7
		C82.2,284.9,82.6,284.4,83.1,283.8z"/>
	<path d="M158,270.5h-14.3v7.4H161v6.4h-17.2v10.1c1,0.2,2.2,0.3,3.7,0.5h20.2l-1,6.9h-19.7c-1.6,0-3.2-0.2-4.7-0.5
		c-5.7-1.3-10.7-4.3-14.8-9.1c-2.3,4.8-6.1,8.7-11.3,11.8l-4.7-5.9c4.8-2.5,8-5.6,9.8-9.4c1.8-3.9,2.9-8.9,3.2-15l6.4,2
		c0.5,0.2,0.9,0.4,1.2,0.7c0.2,0.3,0.2,0.6,0.2,0.7c-0.2,0.3-0.6,0.7-1.2,1c-0.5,2.8-1,5.5-1.5,8.1c0.3,0.5,0.7,1,1.2,1.5
		c1.6,1.6,3.6,3,5.9,4.2v-21.4h-15.3v-6.4H158V270.5z M144.5,246.4c-0.2,0.3-0.5,0.7-1,1v4.9h22.6v14h-6.9v-7.6h-38.9v8.1h-6.9
		v-14.5h22.6v-7.1h6.4C144.2,245.1,144.8,245.6,144.5,246.4z"/>
	<path d="M201.2,278.4h-11.1v1.5h-6.4v-14.3h19.4v11.6c2-1.5,3.6-3,4.9-4.4c-0.8-1.6-1.6-3.2-2.2-4.7c-1.1-3-2.1-6.6-2.7-11.1h-20.7
		v13.8c0,4.6-2,9.6-5.9,15l-5.7-4.7c0.5-0.5,1-1.1,1.5-1.7c1.3-2.1,2.2-4.3,2.7-6.4c0.3-1.6,0.5-2.9,0.5-3.7v-18.2h27.3v-6.4
		l6.4,0.5c1.5,0.3,1.9,0.9,1.2,1.7c-0.2,0.3-0.4,0.5-0.7,0.5v3.7h3.9l-2.7-1.7l4.4-4.4c2.6,1.3,5.1,3,7.4,4.9l-1.7,1.2h6.4v5.9H210
		c0.5,4.3,1.5,7.8,3,10.6c1.5-2.6,2.9-5.7,4.2-9.4l4.9,2.2c1,0.5,1.6,0.9,1.7,1.2c0.2,0.8-0.3,1.3-1.5,1.5c-1.8,3.9-3.6,7.1-5.4,9.6
		c1.3,1.5,2.5,2.5,3.4,3c0.8,0.5,1.5,0.3,2-0.5c0.2-0.8,0.3-1.8,0.5-3l7.1,1.5c-0.2,3.8-0.7,6.6-1.7,8.4c-0.8,1.5-2.1,2.2-3.7,2.2
		c-1.3,0-2.7-0.3-4.2-1c-3.4-1.5-6.2-3.3-8.1-5.4c-2.8,3-5.9,5.4-9.4,7.4l-4.7-5.4C199,279.4,200,278.9,201.2,278.4z M180,302
		l-6.9-3.4c0.5-0.8,1-1.7,1.5-2.7c1.8-3.6,3.2-7.5,4.2-11.8l5.2,2c0.7,0.3,1.1,0.7,1.5,1c0.3,0.5,0.3,0.9,0,1.2
		c-0.2,0.2-0.4,0.2-0.7,0.2C183.7,292.2,182.1,296.7,180,302z M202.9,264.1h-19.7v-5.4h19.7V264.1z M208,296.3c0.5,0,0.8-0.1,1-0.2
		c0.3-0.3,0.6-1.1,0.7-2.5l0.2-2.7l6.6,0.7l-0.5,5.2c-0.2,0.8-0.3,1.6-0.5,2.2c-0.8,2.5-2.5,3.7-4.9,3.7h-19.9
		c-3.3-0.2-4.9-1.9-4.9-5.2v-15h5.9c2,0.2,2.3,0.8,1,2v10.1c0,0.5,0.1,0.9,0.2,1.2c0.2,0.3,0.6,0.5,1.2,0.5H208z M190.1,270.5v3h6.6
		v-3H190.1z M194.3,286l4.7-4.2c3.1,3.1,6.1,6.4,8.9,9.8l-5.4,4.2C199.4,291.9,196.7,288.6,194.3,286z M219.1,284
		c3.4,3.3,6.9,7.1,10.3,11.3l-5.7,5.2c-2.8-4.3-6-8.2-9.6-11.8L219.1,284z"/>
	<path d="M280.7,251.5c0.2,1-0.2,1.5-1.2,1.5c-0.5,0-1.1-0.2-1.7-0.7c-3.6,0.5-8,1-13,1.5v2h22.9v5.9h-22.9v2h16.7v20.7h-16.7v2.5
		h18.2v5.9h-18.2v3h23.6v5.9H233v-5.9h24.9v-3h-18.7v-5.9h18.7v-2.5h-16.5v-20.7h16.5v-2h-24.1v-5.9h24.1V254
		c-5.6,0.2-11.7,0.2-18.2,0.2l-1-5.9c20.8,0.2,33.8-0.7,38.9-2.5l2.7,4.4C280.5,250.8,280.7,251.2,280.7,251.5z M248.2,269v2.2h9.6
		V269H248.2z M248.2,276.2v2.2h9.6v-2.2H248.2z M264.7,269v2.2h9.8V269H264.7z M264.7,276.2v2.2h9.8v-2.2H264.7z"/>
	<path d="M308.6,246.9v8.4h4.4l1-1l3.9,3.4c1,1.3,0.7,2-0.7,2c-2.1,4.4-5,8.6-8.6,12.6v0.5c1,0.3,2,0.7,3.2,1.2
		c3.3,1.8,5.5,3.3,6.6,4.4l-3.9,5.9c-1.8-2-3.8-3.6-5.9-4.9v24.4h-6.9v-24.6c-2,2-4.3,3.9-7.1,5.9l-3.2-6.6
		c4.1-2.5,7.9-5.6,11.3-9.4c2.6-2.8,4.4-5.2,5.4-7.4h-14.5v-6.4h8.1v-10.3h5.9C309.6,245.1,309.9,245.7,308.6,246.9z M347.2,282.6
		h-6.6v11.6c0,0.5,0.1,0.9,0.2,1.2c0.2,0.3,0.6,0.5,1.2,0.5h1.2c1,0.2,1.5-0.4,1.5-1.7l0.2-4.4l6.6,1.2l-0.7,6.2
		c-0.2,1.8-0.9,3.2-2.2,4.2c-0.8,0.7-1.8,1-3,1h-7.1c-3.3-0.2-4.9-1.9-4.9-5.2v-14.5H331c0,2.8-0.2,5.3-0.7,7.4
		c-2.1,7.5-7.7,12.1-16.7,13.8l-3.2-7.1c2.1-0.2,4.1-0.6,5.9-1.2c5.6-1.8,8.2-6.1,7.9-12.8h-4.9v-35.4h28.1V282.6z M326.1,253.5v3.2
		h14.3v-3.2H326.1z M326.1,263.1v3.4h14.3v-3.4H326.1z M326.1,273v3.7h14.3V273H326.1z"/>
	<path d="M401.7,256.2c4.6,3.9,6.9,9.7,6.9,17.2c0,5.9-1.8,11.1-5.4,15.5c-3.6,4.4-8.5,8-14.8,10.6l-5.7-6.2
		c12.5-4.8,18.7-11.3,18.7-19.7c0-5.2-1.5-9.4-4.4-12.3c-3.1-3.1-7.8-4.7-14-4.7c2.6,0.7,3.9,1.3,3.9,2c-0.2,0.7-0.7,1.1-1.5,1.2
		c-0.5,3.8-1.7,9.4-3.7,17c-1.8,7.1-3.7,11.8-5.7,14.3c-2.5,3.1-5.1,4.7-7.9,4.7c-3,0-5.6-1.1-7.9-3.4c-3.4-3.4-5.2-8.7-5.2-15.8
		c0-7.1,2.6-13.2,7.9-18.5c5.2-5.2,11.8-7.9,19.7-7.9S396.9,252.3,401.7,256.2z M368,288c1.8,0,3.3-1.2,4.4-3.7c3-8,5-17.1,6.2-27.1
		c-5.6,0.8-9.7,3.4-12.3,7.6c-2.5,3.9-3.7,8-3.7,12.1c0,4.6,0.9,7.8,2.7,9.6C366.2,287.5,367.1,288,368,288z"/>
	<path d="M449,254.3h-35.2v-6.4H449V254.3z M448,302.7h-6.9V301h-18.7v2.7h-6.9v-29.3H448V302.7z M444.3,272H419v-15.8h25.3V272z
		 M422.4,280.3v4.2h6.2v-4.2H422.4z M422.4,290.4v4.7h6.2v-4.7H422.4z M425.9,262.1v3.9h11.6v-3.9H425.9z M435,280.3v4.2h6.2v-4.2
		H435z M435,290.4v4.7h6.2v-4.7H435z M458.6,254.7v36.9h-6.9v-38.9h5.9C459.6,252.9,459.9,253.6,458.6,254.7z M469.4,248.6v49.7
		c0,0.7-0.1,1.3-0.2,2c-0.7,2.1-2.2,3.2-4.7,3.2h-6.9l-0.7-6.9h4.2c0.7,0,1.1-0.2,1.2-0.5c0.2-0.3,0.2-0.7,0.2-1.2v-48.2h5.9
		C470.4,246.8,470.7,247.4,469.4,248.6z"/>
	<path d="M502.2,247.6v8.4h2.7v-10.3h5.9c2,0.2,2.3,0.8,1,2v8.4h3.2l-2-1.2c1.8-2,3.7-4.4,5.7-7.4l4.7,3.2c0.7,0.5,1,0.9,1,1.2
		c0,0.5-0.5,0.7-1.5,0.7l-2.7,3.4H531v5.9h-16l-1.2,2.7h11.8v5.9h-18.5v1.7h15.5v5.9h-15.5v2h24.1v5.9h-19.9c2.5,2,5.6,3.8,9.4,5.4
		c4.3,1.8,8,2.9,11.1,3.2l-2,6.9c-8.5-1.6-16.1-5.2-22.6-10.8v13h-6.9v-12.6c-1.3,1.1-2.6,2.2-3.9,3.2c-4.9,3.3-10.7,5.7-17.5,7.4
		l-2.7-6.6c4.3-1,8.4-2.3,12.3-3.9c3.8-1.6,6.6-3.4,8.6-5.2h-20.9v-5.9h24.1v-2h-16v-5.9h16v-1.7h-18.7v-5.9h12.1l-1.2-2.7h-16.2
		V256h11.1c-1-1.3-2.3-2.6-3.9-3.9l4.4-3.9c3,2,5.3,4.2,7.1,6.6l-2,1.2h2.5v-10.3h5.9C503.2,245.8,503.5,246.5,502.2,247.6z
		 M499,261.9l1.2,2.7h7.1l1-2.7H499z"/>
	<path d="M583.5,256.2c4.6,3.9,6.9,9.7,6.9,17.2c0,5.9-1.8,11.1-5.4,15.5c-3.6,4.4-8.5,8-14.8,10.6l-5.7-6.2
		c12.5-4.8,18.7-11.3,18.7-19.7c0-5.2-1.5-9.4-4.4-12.3c-3.1-3.1-7.8-4.7-14-4.7c2.6,0.7,3.9,1.3,3.9,2c-0.2,0.7-0.7,1.1-1.5,1.2
		c-0.5,3.8-1.7,9.4-3.7,17c-1.8,7.1-3.7,11.8-5.7,14.3c-2.5,3.1-5.1,4.7-7.9,4.7c-3,0-5.6-1.1-7.9-3.4c-3.4-3.4-5.2-8.7-5.2-15.8
		c0-7.1,2.6-13.2,7.9-18.5c5.2-5.2,11.8-7.9,19.7-7.9S578.7,252.3,583.5,256.2z M549.8,288c1.8,0,3.3-1.2,4.4-3.7
		c3-8,5-17.1,6.2-27.1c-5.6,0.8-9.7,3.4-12.3,7.6c-2.5,3.9-3.7,8-3.7,12.1c0,4.6,0.9,7.8,2.7,9.6C548.1,287.5,549,288,549.8,288z"/>
	<path d="M623.4,249.8l4.9,4.2c1.3,1.1,1,2.1-1,3c-1.8,4.4-3.6,8.9-5.4,13.3c4.9,0.7,9.8,1.8,14.8,3.4c0.2-5.1,0.2-9.8,0-14.3
		l6.4,1.2c1.1,0.3,1.8,0.7,2,1.2c0,0.5-0.4,0.8-1.2,1c0.2,3.1,0,7.5-0.5,13c3.4,1.3,7.1,3.1,11.1,5.4l-3.4,6.4
		c-3-1.8-5.9-3.4-8.9-4.7c-2,7.1-5.4,13-10.3,18l-5.9-4.7c4.6-3.9,7.9-9.2,9.8-15.8c-5.7-2.1-11.2-3.4-16.2-3.9
		c-0.8,2.5-2.3,5.7-4.4,9.6c-1.3,2.5-3,4.8-5.2,6.9c-1.6,1.6-3.7,2.5-6.2,2.5c-2,0-3.8-0.8-5.4-2.5c-1.8-1.8-2.7-4.2-2.7-7.1
		c0-3.9,1.6-7.5,4.7-10.6c3.8-3.8,8.8-5.7,15-5.7c1.1-2.5,2.6-6.4,4.4-11.8c-3.8,0.8-8.1,1.8-13,3l-2.2-7.1c2.6,0,5.8-0.3,9.6-1
		c2.6-0.5,4.8-1,6.4-1.5C621.5,251,622.4,250.5,623.4,249.8z M603.7,288.7c1,0.2,2.2-0.7,3.7-2.7c1.8-3,3.5-6.1,5.2-9.4
		c-6.4,0.7-9.9,3.8-10.6,9.4C601.8,287.5,602.4,288.4,603.7,288.7z"/>
	<path d="M679.4,301.8v-10.8h5.4h5.4v10.8H679.4z M680.8,285.8l-1.2-38.4h10.3l-1.2,38.4h-3.9H680.8z"/>
</g>
</svg>
